<?xml version="1.0" encoding="UTF-8" standalone="no"?>
<!-- Generator: Adobe Illustrator 21.0.0, SVG Export Plug-In . SVG Version: 6.00 Build 0)  -->

<svg
   version="1.1"
   id="Layer_1"
   x="0px"
   y="0px"
   viewBox="0 0 29.444553 31.999999"
   xml:space="preserve"
   sodipodi:docname="Grafana_logo.svg"
   width="29.444553"
   height="32"
   inkscape:version="1.2.2 (b0a8486541, 2022-12-01)"
   xmlns:inkscape="http://www.inkscape.org/namespaces/inkscape"
   xmlns:sodipodi="http://sodipodi.sourceforge.net/DTD/sodipodi-0.dtd"
   xmlns="http://www.w3.org/2000/svg"
   xmlns:svg="http://www.w3.org/2000/svg"><defs
   id="defs30" /><sodipodi:namedview
   id="namedview28"
   pagecolor="#ffffff"
   bordercolor="#000000"
   borderopacity="0.25"
   inkscape:showpageshadow="2"
   inkscape:pageopacity="0.0"
   inkscape:pagecheckerboard="0"
   inkscape:deskcolor="#d1d1d1"
   showgrid="false"
   inkscape:zoom="19.853382"
   inkscape:cx="35.182923"
   inkscape:cy="15.035222"
   inkscape:window-width="2752"
   inkscape:window-height="1080"
   inkscape:window-x="0"
   inkscape:window-y="0"
   inkscape:window-maximized="1"
   inkscape:current-layer="Layer_1" />
<style
   type="text/css"
   id="style2">
	.st0{fill:#565656;}
	.st1{fill:url(#SVGID_1_);}
</style>

<linearGradient
   id="SVGID_1_"
   gradientUnits="userSpaceOnUse"
   x1="71.25"
   y1="10.4893"
   x2="71.25"
   y2="113.3415"
   gradientTransform="matrix(0.28393966,0,0,-0.28393966,-5.508429,42.193433)">
	<stop
   offset="0"
   style="stop-color:#FCEE1F"
   id="stop20" />
	<stop
   offset="1"
   style="stop-color:#F15B2A"
   id="stop22" />
</linearGradient>
<path
   class="st1"
   d="M 29.387755,14.168589 C 29.330967,13.629104 29.245785,13.004437 29.075421,12.322981 28.905058,11.641526 28.621118,10.903283 28.251996,10.108252 27.854481,9.3416149 27.371783,8.5181899 26.718722,7.7515528 26.463177,7.4392192 26.179237,7.1552795 25.895297,6.8429459 26.349601,5.054126 25.355812,3.4924579 25.355812,3.4924579 23.62378,3.378882 22.544809,4.0319432 22.147294,4.3158829 22.090506,4.2874889 22.005324,4.2590949 21.948536,4.230701 21.664596,4.1171251 21.352263,4.0035492 21.039929,3.8899734 20.727595,3.8047915 20.415262,3.6912156 20.102928,3.6344277 19.790594,3.5492458 19.449867,3.4924579 19.109139,3.4356699 c -0.05679,0 -0.113576,-0.028394 -0.170363,-0.028394 C 18.200532,1.0221828 16.042591,0 16.042591,0 c -2.470275,1.5900621 -2.952973,3.7196096 -2.952973,3.7196096 0,0 0,0.056788 -0.02839,0.1135758 -0.141969,0.028394 -0.255545,0.085182 -0.397515,0.1135759 -0.170364,0.056788 -0.369122,0.1135759 -0.539485,0.1987578 -0.170364,0.085182 -0.369122,0.1419698 -0.539486,0.2271517 -0.369121,0.1703638 -0.709849,0.3407276 -1.07897,0.5394854 C 10.165044,5.1109139 9.8243156,5.3096717 9.511983,5.5368234 9.455193,5.5084294 9.426803,5.4800354 9.426803,5.4800354 6.104709,4.2023069 3.151736,5.7355811 3.151736,5.7355811 c -0.255545,3.5492458 1.334517,5.7639749 1.64685,6.1614909 -0.08518,0.227152 -0.14197,0.425909 -0.227151,0.653061 -0.255546,0.795031 -0.42591,1.618456 -0.539486,2.470275 -0.02839,0.113576 -0.02839,0.255546 -0.05679,0.369122 C 0.90860697,16.89441 0,20.017746 0,20.017746 c 2.555457,2.952973 5.565217,3.123337 5.565217,3.123337 v 0 c 0.369122,0.681455 0.823425,1.334516 1.306123,1.930789 0.198758,0.255546 0.425909,0.482698 0.653061,0.738243 -0.937001,2.669033 0.14197,4.912157 0.14197,4.912157 2.86779,0.113575 4.741792,-1.249335 5.139308,-1.561669 0.283939,0.08518 0.567879,0.170364 0.851819,0.255546 0.880213,0.227152 1.78882,0.369122 2.669033,0.397516 0.227151,0 0.454303,0 0.681455,0 h 0.113576 0.08518 0.141969 0.14197 v 0 C 18.8252,31.744454 21.210293,32 21.210293,32 c 1.675244,-1.78882 1.78882,-3.520852 1.78882,-3.918367 v 0 c 0,0 0,0 0,-0.02839 0,-0.02839 0,-0.05679 0,-0.05679 v 0 c 0,-0.02839 0,-0.05679 0,-0.08518 0.340727,-0.255546 0.681455,-0.511092 1.022182,-0.795031 0.681456,-0.596273 1.249335,-1.306123 1.760426,-2.044366 0.05679,-0.05679 0.08518,-0.14197 0.14197,-0.198758 1.902396,0.113576 3.236912,-1.192546 3.236912,-1.192546 -0.312333,-1.987578 -1.448092,-2.952973 -1.675244,-3.123336 v 0 c 0,0 0,0 -0.02839,-0.02839 l -0.02839,-0.02839 v 0 l -0.02839,-0.02839 c 0,-0.113576 0.02839,-0.227152 0.02839,-0.369122 0.02839,-0.227152 0.02839,-0.425909 0.02839,-0.653061 v -0.170364 -0.08518 -0.02839 c 0,-0.05679 0,-0.02839 0,-0.05679 v -0.14197 -0.170363 c 0,-0.05679 0,-0.113576 0,-0.170364 0,-0.05679 0,-0.113576 -0.02839,-0.170364 l -0.02839,-0.170364 -0.02839,-0.170364 c -0.02839,-0.227151 -0.08518,-0.425909 -0.113575,-0.653061 -0.198758,-0.851819 -0.539486,-1.675244 -0.965395,-2.385093 -0.454304,-0.738243 -0.993789,-1.36291 -1.618456,-1.93079 -0.624668,-0.539485 -1.306123,-0.993788 -2.044366,-1.306122 -0.738243,-0.340728 -1.476486,-0.539485 -2.243123,-0.624667 -0.369122,-0.05679 -0.766637,-0.05679 -1.135759,-0.05679 h -0.14197 -0.02839 -0.05679 -0.05679 -0.141969 c -0.05679,0 -0.113576,0 -0.14197,0 -0.198758,0.02839 -0.397516,0.05679 -0.56788,0.08518 -0.766637,0.141969 -1.476486,0.425909 -2.101153,0.795031 -0.624667,0.369121 -1.164153,0.851819 -1.618456,1.391304 -0.454304,0.539485 -0.795031,1.107365 -1.022183,1.732032 -0.227152,0.596273 -0.369121,1.249335 -0.397515,1.845608 0,0.14197 0,0.312333 0,0.454303 0,0.02839 0,0.08518 0,0.113576 v 0.113576 c 0,0.08518 0,0.14197 0.02839,0.227152 0.02839,0.312333 0.08518,0.596273 0.170363,0.880213 0.170364,0.567879 0.42591,1.07897 0.766637,1.533274 0.340728,0.454303 0.70985,0.795031 1.135759,1.078971 0.42591,0.283939 0.851819,0.482697 1.306123,0.624667 0.454303,0.14197 0.880212,0.198758 1.277728,0.170364 0.05679,0 0.113576,0 0.14197,0 0.02839,0 0.05679,0 0.08518,0 0.02839,0 0.05679,0 0.08518,0 0.05679,0 0.08518,0 0.141969,0 h 0.02839 0.02839 c 0.02839,0 0.05679,0 0.08518,0 0.05679,0 0.113576,-0.02839 0.14197,-0.02839 0.05679,0 0.08518,-0.02839 0.14197,-0.02839 0.08518,-0.02839 0.198758,-0.05679 0.28394,-0.08518 0.170363,-0.05679 0.340727,-0.14197 0.511091,-0.198758 0.170364,-0.08518 0.312334,-0.170364 0.42591,-0.255546 0.02839,-0.02839 0.08518,-0.05679 0.113575,-0.08518 0.14197,-0.113575 0.170364,-0.312333 0.05679,-0.454303 -0.113576,-0.113576 -0.283939,-0.14197 -0.425909,-0.08518 -0.02839,0.02839 -0.05679,0.02839 -0.113576,0.05679 -0.113576,0.05679 -0.255546,0.113576 -0.369122,0.14197 -0.141969,0.02839 -0.283939,0.08518 -0.425909,0.113576 -0.08518,0 -0.14197,0.02839 -0.227152,0.02839 -0.02839,0 -0.08518,0 -0.113576,0 -0.02839,0 -0.08518,0 -0.113576,0 -0.02839,0 -0.08518,0 -0.113575,0 -0.05679,0 -0.08518,0 -0.14197,0 0,0 -0.02839,0 0,0 h -0.02839 -0.02839 c -0.02839,0 -0.02839,0 -0.05679,0 -0.02839,0 -0.08518,0 -0.113576,-0.02839 -0.312334,-0.05679 -0.653061,-0.14197 -0.965395,-0.28394 -0.312333,-0.14197 -0.624667,-0.340728 -0.880213,-0.596273 C 15.5315,20.159716 15.304348,19.875776 15.10559,19.535049 14.906832,19.194321 14.793256,18.8252 14.736469,18.456078 c -0.02839,-0.198758 -0.05679,-0.397515 -0.02839,-0.596273 0,-0.05679 0,-0.113576 0,-0.170364 0,0.02839 0,0 0,0 v -0.02839 -0.02839 c 0,-0.02839 0,-0.05679 0,-0.08518 0,-0.113576 0.02839,-0.198758 0.05679,-0.312333 0.14197,-0.851819 0.56788,-1.675244 1.220941,-2.299912 0.170364,-0.170364 0.340728,-0.312333 0.539485,-0.425909 0.198758,-0.14197 0.397516,-0.255546 0.596274,-0.340728 0.198757,-0.08518 0.425909,-0.170364 0.653061,-0.227152 0.227152,-0.05679 0.454303,-0.113575 0.681455,-0.113575 0.113576,0 0.227152,-0.02839 0.340728,-0.02839 0.02839,0 0.05679,0 0.08518,0 h 0.08518 0.05679 c 0.02839,0 0,0 0,0 h 0.02839 0.08518 c 0.255546,0.02839 0.511092,0.05679 0.738243,0.113575 0.482698,0.113576 0.965395,0.28394 1.419699,0.539486 0.908607,0.511091 1.675244,1.277728 2.129547,2.214729 0.227152,0.454304 0.397516,0.965395 0.482698,1.50488 0.02839,0.14197 0.02839,0.255546 0.05679,0.397516 v 0.08518 0.08518 c 0,0.02839 0,0.05679 0,0.08518 0,0.02839 0,0.05679 0,0.08518 v 0.08518 0.08518 c 0,0.05679 0,0.170364 0,0.227152 0,0.14197 -0.02839,0.28394 -0.02839,0.42591 -0.02839,0.141969 -0.02839,0.283939 -0.05679,0.425909 -0.02839,0.14197 -0.05679,0.28394 -0.08518,0.42591 -0.05679,0.283939 -0.170364,0.539485 -0.255546,0.823425 -0.198758,0.539485 -0.482697,1.050576 -0.823425,1.50488 -0.681455,0.937001 -1.618456,1.703638 -2.669033,2.186335 -0.539485,0.227152 -1.078971,0.42591 -1.64685,0.511092 -0.28394,0.05679 -0.567879,0.08518 -0.851819,0.08518 h -0.05679 -0.05679 -0.08518 -0.141969 -0.08518 c 0.02839,0 0,0 0,0 h -0.02839 c -0.14197,0 -0.312334,0 -0.454304,-0.02839 -0.624667,-0.05679 -1.22094,-0.170364 -1.817214,-0.340728 -0.596273,-0.170364 -1.164152,-0.397516 -1.703638,-0.681455 -1.07897,-0.56788 -2.044365,-1.391305 -2.811002,-2.328306 C 9.9378976,21.834965 9.597171,21.323874 9.313231,20.784388 9.029291,20.244903 8.830534,19.677024 8.66017,19.109144 8.489806,18.541265 8.404624,17.944992 8.37623,17.348718 v -0.113575 -0.02839 -0.02839 -0.05679 -0.08518 -0.02839 -0.02839 -0.05679 -0.14197 -0.02839 0 -0.05679 c 0,-0.08518 0,-0.14197 0,-0.227152 0,-0.283939 0.02839,-0.596273 0.08518,-0.908606 0.02839,-0.312334 0.08518,-0.596274 0.14197,-0.908607 0.05679,-0.312334 0.14197,-0.596274 0.227152,-0.908607 0.170363,-0.596274 0.369121,-1.164153 0.624667,-1.703638 0.5110906,-1.078971 1.164152,-2.0443658 1.930789,-2.811003 0.198758,-0.1987577 0.397516,-0.3691215 0.624668,-0.5394853 0.08518,-0.085182 0.283939,-0.2555457 0.511091,-0.3975155 0.227152,-0.1419699 0.454304,-0.2839397 0.709849,-0.3975156 0.113576,-0.056788 0.227152,-0.1135758 0.369122,-0.1703638 0.05679,-0.028394 0.113576,-0.056788 0.198758,-0.085182 0.05679,-0.028394 0.113575,-0.056788 0.198757,-0.085182 0.255546,-0.1135758 0.511092,-0.1987577 0.766637,-0.2839396 0.05679,-0.028394 0.14197,-0.028394 0.198758,-0.056788 0.05679,-0.028394 0.14197,-0.028394 0.198758,-0.056788 0.14197,-0.028394 0.255546,-0.056788 0.397516,-0.1135759 0.05679,-0.028394 0.141969,-0.028394 0.198757,-0.056788 0.05679,0 0.14197,-0.028394 0.198758,-0.028394 0.05679,0 0.14197,-0.028394 0.198758,-0.028394 l 0.113576,-0.028394 0.113576,-0.028394 c 0.05679,0 0.141969,-0.028394 0.198757,-0.028394 0.08518,0 0.14197,-0.028394 0.227152,-0.028394 0.05679,0 0.170364,-0.028394 0.227152,-0.028394 0.05679,0 0.08518,0 0.14197,-0.028394 h 0.08518 0.05679 0.05679 c 0.08518,0 0.14197,0 0.227152,-0.028394 h 0.113576 c 0,0 0.02839,0 0,0 h 0.02839 0.05679 c 0.05679,0 0.14197,0 0.198758,0 0.255545,0 0.511091,0 0.766637,0 0.511091,0.028394 1.022182,0.085182 1.50488,0.1703638 0.965395,0.1703638 1.902396,0.4826974 2.725821,0.9086069 0.823425,0.3975156 1.590062,0.9086069 2.214729,1.4480923 0.02839,0.028394 0.08518,0.056788 0.113576,0.1135759 0.02839,0.028394 0.08518,0.056788 0.113576,0.1135758 0.08518,0.056788 0.14197,0.1419699 0.227152,0.1987578 0.08518,0.056788 0.141969,0.1419698 0.227151,0.1987578 0.05679,0.085182 0.14197,0.1419694 0.198758,0.2271514 0.28394,0.28394 0.539485,0.596273 0.766637,0.880213 0.454304,0.596273 0.823425,1.192547 1.107365,1.760426 0.02839,0.02839 0.02839,0.05679 0.05679,0.113576 0.02839,0.02839 0.02839,0.05679 0.05679,0.113576 0.02839,0.05679 0.05679,0.141969 0.113576,0.198757 0.02839,0.05679 0.05679,0.14197 0.08518,0.198758 0.02839,0.05679 0.05679,0.14197 0.08518,0.198758 0.113576,0.255546 0.198758,0.511091 0.28394,0.766637 0.14197,0.397516 0.227152,0.738243 0.312334,1.022183 0.02839,0.113576 0.141969,0.198758 0.255545,0.198758 0.14197,0 0.227152,-0.113576 0.227152,-0.255546 -0.02839,-0.340728 -0.02839,-0.709849 -0.05679,-1.135759 z"
   id="path25"
   style="fill:url(#SVGID_1_);stroke-width:0.28394" />
</svg>
