<?xml version="1.0" encoding="UTF-8" standalone="no"?>
<svg
   width="32"
   height="32"
   version="1.1"
   viewBox="0 0 32 32"
   id="svg6"
   sodipodi:docname="Typescript.svg"
   inkscape:version="1.2.2 (b0a8486541, 2022-12-01)"
   xmlns:inkscape="http://www.inkscape.org/namespaces/inkscape"
   xmlns:sodipodi="http://sodipodi.sourceforge.net/DTD/sodipodi-0.dtd"
   xmlns="http://www.w3.org/2000/svg"
   xmlns:svg="http://www.w3.org/2000/svg">
  <defs
     id="defs10" />
  <sodipodi:namedview
     id="namedview8"
     pagecolor="#ffffff"
     bordercolor="#000000"
     borderopacity="0.25"
     inkscape:showpageshadow="2"
     inkscape:pageopacity="0.0"
     inkscape:pagecheckerboard="0"
     inkscape:deskcolor="#d1d1d1"
     showgrid="false"
     inkscape:zoom="15.96875"
     inkscape:cx="16"
     inkscape:cy="16"
     inkscape:window-width="1444"
     inkscape:window-height="720"
     inkscape:window-x="0"
     inkscape:window-y="0"
     inkscape:window-maximized="0"
     inkscape:current-layer="svg6" />
  <path
     d="M 1.2,0 H 30.8 C 31.462769,0 32,0.53725538 32,1.2 V 30.8 C 32,31.462769 31.462769,32 30.8,32 H 1.2 C 0.53725538,32 0,31.462769 0,30.8 V 1.2 C 0,0.53725538 0.53725538,0 1.2,0 Z"
     fill="#ffffff"
     id="path2"
     style="stroke-width:0.123077" />
  <path
     d="M 1.2,0 H 30.8 C 31.462769,0 32,0.53725538 32,1.2 V 30.8 C 32,31.462769 31.462769,32 30.8,32 H 1.2 C 0.53725538,32 0,31.462769 0,30.8 V 1.2 C 0,0.53725538 0.53725538,0 1.2,0 Z M 17.788308,17.024 V 14.399508 H 6.3997538 V 17.024 H 10.465723 V 28.709662 H 13.7024 V 17.024 Z m 1.290461,11.377108 c 0.521969,0.266092 1.139323,0.465723 1.852062,0.598769 0.712615,0.133046 1.463754,0.199631 2.253415,0.199631 0.7696,0 1.500677,-0.07323 2.193231,-0.21957 0.692677,-0.146338 1.299938,-0.387569 1.821908,-0.723569 0.521969,-0.336 0.935138,-0.775015 1.23963,-1.317292 0.304493,-0.542277 0.456739,-1.212554 0.456739,-2.010954 0,-0.578831 -0.08702,-1.086031 -0.260923,-1.521846 -0.174031,-0.435815 -0.424985,-0.823385 -0.752862,-1.162708 -0.327877,-0.339323 -0.721107,-0.643692 -1.179446,-0.913107 -0.458461,-0.269416 -0.975385,-0.523939 -1.550892,-0.763447 -0.421539,-0.173046 -0.799631,-0.341046 -1.134277,-0.504 -0.334523,-0.162953 -0.618954,-0.329353 -0.853169,-0.498953 -0.234216,-0.169724 -0.414893,-0.349293 -0.542031,-0.538954 -0.127139,-0.189539 -0.190769,-0.404185 -0.190769,-0.643693 0,-0.219569 0.05698,-0.417477 0.170707,-0.593723 0.113723,-0.176369 0.274339,-0.327754 0.481846,-0.454154 0.207385,-0.1264 0.461662,-0.224492 0.762831,-0.2944 0.301169,-0.06978 0.635693,-0.104738 1.003816,-0.104738 0.267569,0 0.5504,0.01994 0.848123,0.05982 0.297846,0.04 0.597292,0.101539 0.898338,0.184616 0.301169,0.0832 0.593969,0.187938 0.8784,0.314461 0.284431,0.1264 0.547077,0.272739 0.787939,0.439016 V 14.948431 C 27.774892,14.762092 27.241231,14.624 26.6624,14.534277 c -0.578954,-0.08985 -1.243077,-0.134769 -1.992492,-0.134769 -0.762954,0 -1.485662,0.08148 -2.168246,0.244554 -0.682585,0.162953 -1.283077,0.417476 -1.801724,0.763446 -0.518646,0.345969 -0.928492,0.786707 -1.229661,1.322215 -0.301169,0.535631 -0.451692,1.176 -0.451692,1.921108 0,0.951507 0.276061,1.7632 0.828184,2.435077 0.552,0.672 1.390154,1.240861 2.514462,1.706584 0.4416,0.179693 0.853169,0.355939 1.234584,0.528985 0.381416,0.172923 0.711016,0.352615 0.988677,0.538831 0.277785,0.186338 0.496862,0.389169 0.657477,0.608738 0.160616,0.219569 0.240985,0.469046 0.240985,0.748554 0,0.206277 -0.05022,0.397538 -0.150646,0.573785 -0.100308,0.176369 -0.252554,0.329353 -0.456616,0.459077 -0.204184,0.129723 -0.458461,0.231261 -0.762954,0.304369 -0.304492,0.07323 -0.6608,0.109784 -1.069046,0.109784 -0.695877,0 -1.385107,-0.121353 -2.067692,-0.364184 -0.682585,-0.242831 -1.314954,-0.607139 -1.897231,-1.0928 z"
     fill="#3178c6"
     id="path4"
     style="stroke-width:0.123077" />
</svg>
