<?xml version="1.0" encoding="UTF-8" standalone="no"?>
<svg
   viewBox="0 0 24.902651 32"
   version="1.1"
   id="svg84"
   sodipodi:docname="Argo CD.svg"
   width="24.902651"
   height="32"
   inkscape:version="1.2.2 (b0a8486541, 2022-12-01)"
   xmlns:inkscape="http://www.inkscape.org/namespaces/inkscape"
   xmlns:sodipodi="http://sodipodi.sourceforge.net/DTD/sodipodi-0.dtd"
   xmlns:xlink="http://www.w3.org/1999/xlink"
   xmlns="http://www.w3.org/2000/svg"
   xmlns:svg="http://www.w3.org/2000/svg">
  <sodipodi:namedview
     id="namedview86"
     pagecolor="#ffffff"
     bordercolor="#000000"
     borderopacity="0.25"
     inkscape:showpageshadow="2"
     inkscape:pageopacity="0.0"
     inkscape:pagecheckerboard="0"
     inkscape:deskcolor="#d1d1d1"
     showgrid="false"
     inkscape:zoom="11.291611"
     inkscape:cx="9.5203418"
     inkscape:cy="16.339563"
     inkscape:window-width="1444"
     inkscape:window-height="720"
     inkscape:window-x="0"
     inkscape:window-y="0"
     inkscape:window-maximized="0"
     inkscape:current-layer="svg84" />
  <defs
     id="defs44">
    <clipPath
       id="argocd-original-e">
      <path
         d="M 42,41 H 86 V 92 H 42 Z m 0,0"
         id="path2" />
    </clipPath>
    <clipPath
       id="argocd-original-d">
      <path
         d="M 0,0 H 128 V 128 H 0 Z"
         id="path5" />
    </clipPath>
    <clipPath
       id="argocd-original-c">
      <path
         d="M 0,0 H 128 V 128 H 0 Z"
         id="path8" />
    </clipPath>
    <clipPath
       id="argocd-original-f">
      <path
         d="m 85.695,41.133 -2.55,58.238 H 44.887 L 42.762,41.133"
         id="path11" />
    </clipPath>
    <clipPath
       id="argocd-original-b">
      <path
         d="M 0,0 H 128 V 128 H 0 Z"
         id="path14" />
    </clipPath>
    <mask
       id="argocd-original-l">
      <g
         filter="url(#argocd-original-a)"
         id="g19">
        <path
           d="M 0,0 H 128 V 128 H 0 Z"
           fill-opacity="0.251"
           id="path17" />
      </g>
    </mask>
    <mask
       id="argocd-original-h">
      <g
         filter="url(#argocd-original-a)"
         id="g24">
        <path
           d="M 0,0 H 128 V 128 H 0 Z"
           fill-opacity="0.22"
           id="path22" />
      </g>
    </mask>
    <mask
       id="argocd-original-j">
      <g
         filter="url(#argocd-original-a)"
         id="g29">
        <path
           d="M 0,0 H 128 V 128 H 0 Z"
           fill-opacity="0.502"
           id="path27" />
      </g>
    </mask>
    <g
       id="argocd-original-i"
       clip-path="url(#argocd-original-b)">
      <path
         d="m 58.488,30.508 a 2.9740004,2.9740004 0 1 1 -5.948,-0.003 2.9740004,2.9740004 0 0 1 5.948,0.003 z m 0,0"
         fill="#fbdfc3"
         id="path32" />
    </g>
    <g
       id="argocd-original-g"
       clip-path="url(#argocd-original-c)">
      <path
         d="m 84.422,65.363 c 0,0 2.55,-22.531 -0.852,-31.031 C 77.195,19.453 62.316,20.73 62.316,20.73 c 0,0 8.5,3.399 8.926,16.153 0.426,8.926 0,22.105 0,22.105 z m 0,0"
         fill="#e34e3b"
         id="path35" />
    </g>
    <g
       id="argocd-original-k"
       clip-path="url(#argocd-original-d)">
      <path
         d="M 83.145,90.867 V 87.47 c -5.95,3.398 -12.329,6.8 -19.977,6.8 -8.504,0 -14.031,-3.824 -19.555,-6.8 l 0.422,3.398 c 0,0 6.38,6.805 19.555,6.805 12.328,-0.426 19.555,-6.805 19.555,-6.805 z m 0,0"
         fill="#e9654b"
         id="path38" />
    </g>
    <filter
       id="argocd-original-a"
       filterUnits="objectBoundingBox"
       x="0"
       y="0"
       width="1"
       height="1">
      <feColorMatrix
         in="SourceGraphic"
         values="0 0 0 0 1 0 0 0 0 1 0 0 0 0 1 0 0 0 1 0"
         id="feColorMatrix41" />
    </filter>
  </defs>
  <path
     d="m 7.4266502,22.607338 c 0,0 -0.217615,0.655159 -0.545965,0.982481 a 0.98761943,0.98761943 0 0 1 -0.763581,0.328093 12.832373,12.832373 0 0 1 -1.639181,0.327323 c 0,0 0.764865,0.10945 1.639181,0.218643 0.327065,0 0.327065,0 0.545709,0.10945 0.546222,0 0.763837,-0.328093 0.763837,-0.328093 z m 10.0483338,0 c 0,0 0.218643,0.655159 0.545966,0.982481 a 0.99121638,0.99121638 0 0 0 0.764608,0.328093 12.794862,12.794862 0 0 0 1.637897,0.327323 c 0,0 -0.763838,0.10945 -1.74709,0.218643 -0.327322,0 -0.327322,0 -0.546222,0.10945 -0.655159,0 -0.764609,-0.328093 -0.764609,-0.328093 z m 0,0"
     fill="#e9654b"
     id="path46"
     style="stroke-width:0.256925" />
  <path
     d="m 24.355691,11.794396 c 0,6.514331 -5.281092,11.795423 -11.795424,11.795423 -6.5145878,0 -11.79542286,-5.281092 -11.79542286,-11.795423 C 0.76484414,5.280835 6.0456792,0 12.560267,0 19.074599,0 24.355691,5.280835 24.355691,11.794396 Z m 0,0"
     fill="#b6cfea"
     id="path48"
     style="stroke-width:0.256925" />
  <path
     d="m 23.919175,11.794396 c 0,6.273593 -5.085315,11.358651 -11.358908,11.358651 -6.2725648,0 -11.3578798,-5.085058 -11.3578798,-11.358651 0,-6.2725654 5.085315,-11.35813749 11.3578798,-11.35813749 6.273593,0 11.358652,5.08531519 11.358652,11.35788049 z m 0,0"
     fill="#e6f5f8"
     id="path50"
     style="stroke-width:0.256925" />
  <path
     d="m 21.843479,12.013296 c 0,5.127194 -4.155761,9.283211 -9.283212,9.283211 -5.1266798,0 -9.2834678,-4.156017 -9.2834678,-9.283468 0,-5.1264232 4.157045,-9.2832116 9.2834678,-9.2832116 5.127451,0 9.283212,4.1570453 9.283212,9.2832116 z m 0,0"
     fill="#d0e8f0"
     id="path52"
     style="stroke-width:0.256925" />
  <path
     d="m 7.0995852,16.38179 c 0,0 0.764609,12.341389 0.764609,12.560289 0,0.108423 0.10945,0.327066 -0.437544,0.545966 -0.545965,0.217872 -2.293312,0.655159 -2.293312,0.655159 h 2.621405 c 1.201381,0 1.201381,-0.983252 1.201381,-1.201125 0,-0.2189 0.327323,-4.914716 0.327323,-4.914716 0,0 0.109193,5.570132 0.109193,5.787747 0,0.2189 -0.109193,0.545966 -0.873031,0.764866 -0.545965,0.10945 -2.18489,0.436772 -2.18489,0.436772 h 2.512212 c 1.5294738,0 1.5294738,-0.982738 1.5294738,-0.982738 l 0.327066,-4.914717 c 0,0 0.10945,4.914717 0.10945,5.460683 0,0.436772 -0.327322,0.764865 -1.5294738,0.982481 C 8.5196092,31.781357 7.5361002,32 7.5361002,32 h 2.8403048 c 1.418997,-0.109193 1.637897,-1.092959 1.637897,-1.092959 l 2.402505,-12.231939 z m 0,0"
     fill="#ee794b"
     id="path54"
     style="stroke-width:0.256925" />
  <path
     d="m 18.02095,16.38179 c 0,0 -0.763838,12.341389 -0.763838,12.560289 0,0.108423 -0.10945,0.327066 0.436772,0.545966 0.545709,0.217872 2.293055,0.655159 2.293055,0.655159 h -2.621405 c -1.201381,0 -1.201381,-0.983252 -1.201381,-1.201125 0,-0.2189 -0.327065,-4.914716 -0.327065,-4.914716 0,0 -0.10945,5.570132 -0.10945,5.787747 0,0.2189 0.10945,0.545966 0.874059,0.764866 l 2.183861,0.436772 H 16.27386 c -1.528703,0 -1.528703,-0.982738 -1.528703,-0.982738 l -0.328093,-4.914717 c 0,0 -0.10945,4.914717 -0.10945,5.460683 0,0.436772 0.32835,0.764865 1.529731,0.982481 C 16.601953,31.781357 17.584434,32 17.584434,32 H 14.745157 C 13.324876,31.890807 13.105976,30.907041 13.105976,30.907041 L 10.703728,18.675359 Z m 0.109193,-6.006647 c 0,3.058177 -2.511955,5.460682 -5.460683,5.460682 -2.9484697,0 -5.4606818,-2.511955 -5.4606818,-5.460682 0,-2.948471 2.5122121,-5.4606829 5.4606818,-5.4606829 2.948728,0 5.460683,2.4027619 5.460683,5.4606829 z m 0,0"
     fill="#ee794b"
     id="path56"
     style="stroke-width:0.256925" />
  <g
     clip-path="url(#argocd-original-e)"
     id="g62"
     transform="matrix(0.25692493,0,0,0.25692493,-3.8870388,-0.4115937)">
    <g
       clip-path="url(#argocd-original-f)"
       id="g60">
      <path
         d="m 102.273,53.46 c 0,20.895 -16.937,37.833 -37.832,37.833 -20.894,0 -37.832,-16.938 -37.832,-37.832 0,-20.895 16.938,-37.832 37.832,-37.832 20.895,0 37.832,16.937 37.832,37.832 z m 0,0"
         fill="#ee794b"
         id="path58" />
    </g>
  </g>
  <use
     xlink:href="#argocd-original-g"
     mask="url(#argocd-original-h)"
     id="use64"
     transform="matrix(0.25692493,0,0,0.25692493,-3.8870388,-0.4115937)" />
  <use
     xlink:href="#argocd-original-i"
     mask="url(#argocd-original-j)"
     id="use66"
     transform="matrix(0.25692493,0,0,0.25692493,-3.8870388,-0.4115937)" />
  <path
     d="m 14.526257,18.565652 c 0,1.856797 -0.874059,3.059205 -1.96599,3.059205 -1.091931,0 -1.966246,-1.420281 -1.966246,-3.27682 0,0 0.874315,1.747089 2.075439,1.747089 1.201381,0 1.856797,-1.529474 1.856797,-1.529474 z m 0,0"
     fill="#010101"
     id="path68"
     style="stroke-width:0.256925" />
  <path
     d="m 14.526257,18.565652 c 0,1.202409 -0.874059,1.856797 -1.96599,1.856797 -1.091931,0 -1.856796,-0.873288 -1.856796,-1.965219 0,0 0.874059,1.091931 2.075439,1.091931 1.201381,0 1.747347,-0.983509 1.747347,-0.983509 z m 0,0"
     fill="#ffffff"
     id="path70"
     style="stroke-width:0.256925" />
  <path
     d="m 19.768039,13.43332 c 0,1.869643 -1.515343,3.384986 -3.384986,3.384986 -1.869899,0 -3.38627,-1.515343 -3.38627,-3.384986 0,-1.8699 1.516371,-3.386271 3.38627,-3.386271 1.869643,0 3.384986,1.516371 3.384986,3.386271 z m -7.644544,0 c 0,1.869643 -1.516371,3.384986 -3.3862708,3.384986 -1.869642,0 -3.384986,-1.515343 -3.384986,-3.384986 0,-1.8699 1.515344,-3.386271 3.385243,-3.386271 1.8696428,0 3.3862708,1.516371 3.3862708,3.386271 z m 0,0"
     fill="#e9654b"
     id="path72"
     style="stroke-width:0.256925" />
  <path
     d="m 19.004458,13.43332 c 0,1.447258 -1.174146,2.621405 -2.621405,2.621405 -1.447258,0 -2.621662,-1.174147 -2.621662,-2.621405 0,-1.448286 1.174147,-2.621405 2.621662,-2.621405 1.447002,0 2.621405,1.173119 2.621405,2.621405 z m -7.864472,0 c 0,1.447258 -1.1731192,2.621405 -2.6203768,2.621405 -1.448286,0 -2.621405,-1.174147 -2.621405,-2.621405 a 2.6208912,2.6208912 0 0 1 2.621405,-2.621405 c 1.4472576,0 2.6206338,1.173119 2.6206338,2.621405 z m 0,0"
     fill="#ffffff"
     id="path74"
     style="stroke-width:0.256925" />
  <path
     d="m 9.2834472,13.105227 a 0.7643521,0.7643521 0 1 1 -1.528704,7.71e-4 0.76435216,0.76435216 0 0 1 1.528704,-10e-4 z m 7.8642148,0 a 0.76460859,0.76460859 0 1 1 -1.52896,2.57e-4 0.76460859,0.76460859 0 0 1 1.52896,-5.14e-4 z m 0,0"
     fill="#010101"
     id="path76"
     style="stroke-width:0.256925" />
  <path
     d="M 0.54697214,14.743894 A 0.51513448,0.51513448 0 0 1 0.00100615,14.197929 V 9.8294343 a 0.51590526,0.51590526 0 0 1 0.14953,-0.396435 A 0.51590526,0.51590526 0 0 1 0.54697214,9.283468 0.51513448,0.51513448 0 0 1 1.0929372,9.8294343 v 4.3687507 c 0.009,0.146448 -0.04625,0.291096 -0.15055804,0.395665 a 0.51590526,0.51590526 0 0 1 -0.39566402,0.150301 z m 23.80871886,0 A 0.51462063,0.51462063 0 0 1 23.960027,14.593336 0.51590526,0.51590526 0 0 1 23.809725,14.197929 V 9.8294343 a 0.51667603,0.51667603 0 0 1 0.150558,-0.396435 0.51384986,0.51384986 0 0 1 0.395408,-0.1495313 0.51384986,0.51384986 0 0 1 0.395407,0.1495313 c 0.10534,0.104568 0.159294,0.249217 0.150558,0.396435 v 4.3687507 a 0.51230831,0.51230831 0 0 1 -0.150558,0.395665 0.51462063,0.51462063 0 0 1 -0.395664,0.150301 z m 0,0"
     fill="#b6cfea"
     id="path78"
     style="stroke-width:0.256925" />
  <path
     d="m 9.3928972,3.0579205 a 0.5459655,0.5459655 0 1 1 -1.091931,0 0.5459655,0.5459655 0 0 1 1.091931,0 z M 4.9157232,17.801815 a 0.40054597,0.40054597 0 0 1 -0.32835,-0.109194 c -1.310574,-1.637896 -1.96599,-3.713336 -1.96599,-5.788775 a 9.7459334,9.7459334 0 0 1 1.310831,-4.9149741 10.698611,10.698611 0 0 1 3.494436,-3.494179 0.48122039,0.48122039 0 0 1 0.54725,0.1091931 0.48147732,0.48147732 0 0 1 -0.109706,0.5459655 8.8138097,8.8138097 0 0 0 -4.478202,7.6445445 8.6036451,8.6036451 0 0 0 1.856796,5.35226 c 0.10945,0.10945 0.10945,0.436772 -0.10945,0.545965 -0.109193,0.10945 -0.109193,0.10945 -0.217615,0.10945 z m 0,0"
     fill="#ffffff"
     id="path80"
     style="stroke-width:0.256925" />
  <use
     xlink:href="#argocd-original-k"
     mask="url(#argocd-original-l)"
     id="use82"
     transform="matrix(0.25692493,0,0,0.25692493,-3.8870388,-0.4115937)" />
</svg>
