<svg xmlns="http://www.w3.org/2000/svg" viewBox="0 0 24 24">
  <title>bluesky icon</title>
  <path d="M12 10.8c-1.087-2.114-4.046-6.053-6.798-7.995C2.566.944 1.561 1.266.902 1.565.139 1.908 0 3.08 0 3.768c0 .69.378 5.65.624 6.479.815 2.736 3.713 3.66 6.383 3.364.136-.02.275-.038.416-.054-2.36.166-4.218 1.041-3.696 2.583.51 1.507 2.817 2.701 5.293 2.699 3.274-.003 5.093-1.7 5.093-1.7s1.819 1.697 5.093 1.7c2.476.002 4.783-1.192 5.294-2.699.521-1.542-1.337-2.417-3.697-2.583.14.016.28.034.415.054 2.67.297 5.568-.628 6.383-3.364.246-.828.624-5.79.624-6.478 0-.69-.139-1.861-.902-2.206-.659-.298-1.664-.62-4.3 1.24C16.046 4.748 13.087 8.687 12 10.8z"/>
</svg>
