<svg xmlns="http://www.w3.org/2000/svg" viewBox="0 0 24 24">
  <title>bluesky icon</title>
  <path d="M10.503 12.643c-0.77 -1.498 -2.867 -4.289 -4.817 -5.665C3.818 5.66 3.106 5.888 2.639 6.1 2.098 6.343 2 7.173 2 7.661c0 0.489 0.268 4.004 0.442 4.591 0.578 1.939 2.631 2.593 4.523 2.384 0.096 -0.014 0.195 -0.027 0.295 -0.038 -1.672 0.118 -2.989 0.738 -2.619 1.83 0.361 1.068 1.996 1.914 3.751 1.912 2.32 -0.002 3.609 -1.205 3.609 -1.205s1.289 1.202 3.609 1.205c1.754 0.001 3.389 -0.845 3.751 -1.912 0.369 -1.093 -0.947 -1.713 -2.62 -1.83 0.099 0.011 0.198 0.024 0.294 0.038 1.892 0.21 3.945 -0.445 4.523 -2.384 0.174 -0.587 0.442 -4.103 0.442 -4.59 0 -0.489 -0.098 -1.319 -0.639 -1.563 -0.467 -0.211 -1.179 -0.439 -3.047 0.879C13.37 8.355 11.273 11.146 10.503 12.643z" />
</svg>