<svg xmlns="http://www.w3.org/2000/svg" viewBox="0 0 24 24">
  <title>Outlook calendar icon</title>
  <path fill="#1976d2" d="M14 6.5h7.266C21.672 6.5 22 6.829 22 7.234v9.533C22 17.172 21.672 17.5 21.267 17.5H14V6.5z" />
  <rect width="7" height="7.771" x="14" y="8.979" fill="#fff" />
  <polygon fill="#1976d2" points="13.5,22 2,19.75 2,4.25 13.5,2" /><path fill="#fff" d="M7.625 8.25c-1.588 0 -2.875 1.679 -2.875 3.75s1.287 3.75 2.875 3.75S10.5 14.071 10.5 12S9.213 8.25 7.625 8.25zM7.5 14.25c-0.829 0 -1.5 -1.008 -1.5 -2.25s0.671 -2.25 1.5 -2.25s1.5 1.008 1.5 2.25S8.329 14.25 7.5 14.25z" />
  <rect width="1.35" height="1.45" x="14.024" y="14.868" fill="#1976d2" />
  <rect width="1.35" height="1.45" x="15.724" y="14.868" fill="#1976d2" />
  <rect width="1.35" height="1.45" x="17.424" y="14.868" fill="#1976d2" />
  <rect width="1.35" height="1.45" x="14.024" y="13.079" fill="#1976d2" />
  <rect width="1.35" height="1.45" x="15.724" y="13.079" fill="#1976d2" />
  <rect width="1.35" height="1.45" x="17.424" y="13.079" fill="#1976d2" />
  <rect width="1.35" height="1.45" x="19.125" y="13.079" fill="#1976d2" />
  <rect width="1.35" height="1.45" x="14.024" y="11.353" fill="#1976d2" />
  <rect width="1.35" height="1.45" x="15.724" y="11.353" fill="#1976d2" />
  <rect width="1.35" height="1.45" x="17.424" y="11.353" fill="#1976d2" />
  <rect width="1.35" height="1.45" x="19.125" y="11.353" fill="#1976d2" />
  <rect width="1.35" height="1.45" x="15.724" y="9.556" fill="#1976d2" />
  <rect width="1.35" height="1.45" x="17.424" y="9.556" fill="#1976d2" />
  <rect width="1.35" height="1.45" x="19.125" y="9.556" fill="#1976d2" />
</svg>