<svg xmlns="http://www.w3.org/2000/svg" viewBox="0 0 24 24">
  <title>Google calendar icon</title>
  <polygon fill="var(--color-white)" points="17.263,6.737 6.737,6.737 6.737,17.263 17.263,17.263" />
  <polygon fill="var(--color-google-red)" points="17.263,22 22,17.263 19.632,16.859 17.263,17.263 16.831,19.43" />
  <path d="M2 17.263L2 20.421C2 21.293 2.707 22 3.579 22L6.737 22L7.223 19.632L6.737 17.263L4.156 16.859L2 17.263Z" fill="var(--color-google-green-dark)" />
  <path d="M22 6.737L22 3.579C22 2.707 21.293 2 20.421 2L17.263 2C16.975 3.175 16.831 4.039 16.831 4.593C16.831 5.148 16.975 5.862 17.263 6.737C18.311 7.037 19.1 7.187 19.632 7.187C20.163 7.187 20.952 7.037 22 6.737Z" fill="var(--color-google-blue-dark)" />
  <polygon fill="var(--color-google-yellow)" points="22,6.737 17.263,6.737 17.263,17.263 22,17.263" />
  <polygon fill="var(--color-google-green)" points="17.263,17.263 6.737,17.263 6.737,22 17.263,22" />
  <path d="M17.263 2L3.579 2C2.707 2 2 2.707 2 3.579L2 17.263L6.737 17.263L6.737 6.737L17.263 6.737L17.263 2Z" fill="var(--color-google-blue)" />
  <path d="M8.896 14.903C8.503 14.637 8.23 14.249 8.082 13.736L8.995 13.359C9.078 13.675 9.222 13.92 9.429 14.093C9.634 14.267 9.884 14.353 10.176 14.353C10.475 14.353 10.732 14.262 10.946 14.08C11.161 13.899 11.268 13.667 11.268 13.387C11.268 13.1 11.155 12.866 10.929 12.684C10.703 12.503 10.418 12.412 10.079 12.412L9.551 12.412L9.551 11.508L10.025 11.508C10.317 11.508 10.563 11.429 10.763 11.271C10.963 11.113 11.063 10.897 11.063 10.622C11.063 10.378 10.974 10.183 10.795 10.037C10.616 9.891 10.389 9.817 10.114 9.817C9.846 9.817 9.633 9.888 9.475 10.032C9.317 10.175 9.199 10.357 9.13 10.559L8.226 10.183C8.346 9.843 8.566 9.543 8.888 9.284C9.211 9.025 9.622 8.895 10.122 8.895C10.492 8.895 10.825 8.966 11.12 9.109C11.414 9.253 11.646 9.451 11.813 9.704C11.98 9.958 12.063 10.242 12.063 10.558C12.063 10.88 11.986 11.153 11.83 11.376C11.675 11.6 11.484 11.771 11.258 11.891L11.258 11.945C11.55 12.065 11.804 12.263 11.992 12.517C12.183 12.774 12.279 13.08 12.279 13.438C12.279 13.796 12.188 14.116 12.007 14.396C11.825 14.676 11.574 14.897 11.255 15.058C10.936 15.218 10.576 15.3 10.178 15.3C9.716 15.301 9.289 15.168 8.896 14.903L8.896 14.903ZM14.505 10.371L13.503 11.096L13.001 10.336L14.8 9.038L15.489 9.038L15.489 15.158L14.505 15.158L14.505 10.371Z" fill="var(--color-google-blue)" />
</svg>