<svg xmlns="http://www.w3.org/2000/svg" viewBox="0 0 24 24">
  <title>apple calendar icon</title>
  <path class="st0" d="M21.999 8.257c0 -0.239 0 -0.478 -0.001 -0.717c-0.001 -0.201 -0.004 -0.403 -0.009 -0.604c-0.012 -0.438 -0.038 -0.881 -0.116 -1.314c-0.079 -0.44 -0.208 -0.849 -0.412 -1.249c-0.2 -0.393 -0.461 -0.752 -0.772 -1.064c-0.312 -0.311 -0.67 -0.572 -1.064 -0.772c-0.399 -0.204 -0.808 -0.332 -1.248 -0.411c-0.433 -0.078 -0.876 -0.104 -1.314 -0.116c-0.201 -0.006 -0.403 -0.007 -0.604 -0.009C16.221 2 15.982 2 15.743 2H8.256c-0.239 0 -0.478 0 -0.717 0.001c-0.201 0.001 -0.403 0.004 -0.604 0.009C6.498 2.023 6.055 2.049 5.622 2.126c-0.44 0.079 -0.849 0.208 -1.248 0.411c-0.393 0.2 -0.753 0.461 -1.064 0.772c-0.312 0.312 -0.572 0.67 -0.772 1.064c-0.204 0.4 -0.332 0.809 -0.412 1.249C2.048 6.056 2.022 6.498 2.011 6.936c-0.006 0.201 -0.008 0.403 -0.009 0.604C2 7.779 2 8.018 2 8.257v7.487c0 0.239 0 0.478 0.002 0.717c0.001 0.201 0.004 0.403 0.009 0.604c0.012 0.438 0.038 0.881 0.116 1.314c0.079 0.44 0.208 0.85 0.412 1.249c0.2 0.393 0.461 0.752 0.772 1.063c0.311 0.312 0.67 0.573 1.064 0.773c0.399 0.204 0.808 0.332 1.248 0.411c0.433 0.078 0.876 0.104 1.314 0.116c0.201 0.006 0.403 0.007 0.604 0.009c0.239 0.001 0.478 0.001 0.717 0.001h7.487c0.239 0 0.478 0 0.717 -0.001c0.201 -0.001 0.403 -0.004 0.604 -0.009c0.438 -0.012 0.881 -0.038 1.314 -0.116c0.44 -0.079 0.849 -0.208 1.248 -0.411c0.393 -0.2 0.752 -0.461 1.064 -0.773c0.312 -0.311 0.572 -0.67 0.772 -1.063c0.204 -0.4 0.332 -0.809 0.412 -1.249c0.078 -0.433 0.104 -0.875 0.116 -1.314c0.006 -0.201 0.007 -0.403 0.009 -0.604c0.001 -0.239 0.001 -0.478 0.001 -0.717V8.257z" />
  <g>
    <path d="M9.464 18.362V9.058H9.074L6.703 10.627v0.397l2.343 -1.534h0.028v8.873H9.464L9.464 18.362z" />
    <path d="M11.78 9.058v0.356h5.111v0.028l-4.104 8.921h0.439L17.296 9.434v-0.377L11.78 9.058L11.78 9.058z" />
  </g>
  <path class="st1" d="M5.634 7.233V5.221h0.007l0.795 1.806l0.264 0l0.793 -1.806h0.009v2.012h0.264V4.568h-0.28L6.574 6.703h-0.007l-0.916 -2.134h-0.28v2.664H5.634L5.634 7.233z" />
  <path class="st1" d="M9.201 5.154c-0.556 0 -0.866 0.405 -0.866 0.953v0.201c0 0.551 0.306 0.957 0.866 0.957c0.558 0 0.863 -0.406 0.863 -0.957v-0.201C10.064 5.559 9.755 5.154 9.201 5.154L9.201 5.154zM9.201 5.406c0.363 0 0.576 0.271 0.576 0.715l0 0.172c0 0.445 -0.213 0.717 -0.576 0.717c-0.366 0 -0.578 -0.273 -0.578 -0.717V6.121C8.623 5.678 8.836 5.406 9.201 5.406L9.201 5.406z" />
  <path class="st1" d="M10.601 7.233h0.287V5.98c0 -0.293 0.16 -0.563 0.535 -0.563c0.32 0 0.526 0.194 0.526 0.543v1.271h0.287v-1.315c0 -0.496 -0.315 -0.764 -0.736 -0.764c-0.336 0 -0.528 0.176 -0.604 0.313H10.888v-0.28h-0.287L10.601 7.233L10.601 7.233z" />
  <path class="st1" d="M13.558 5.152c-0.508 0 -0.818 0.396 -0.818 0.951v0.209c0 0.565 0.287 0.951 0.818 0.951c0.294 0 0.504 -0.148 0.613 -0.35h0.007l0 0.319h0.271V4.425h-0.287v1.055h-0.007C14.056 5.303 13.845 5.152 13.558 5.152L13.558 5.152zM13.584 5.409c0.363 0 0.586 0.285 0.586 0.707v0.19c0 0.44 -0.217 0.703 -0.582 0.703c-0.324 0 -0.56 -0.236 -0.56 -0.705v-0.185C13.026 5.641 13.267 5.409 13.584 5.409L13.584 5.409z" />
  <path class="st1" d="M16.226 6.967h0.007v0.266h0.28V5.81c0 -0.42 -0.308 -0.656 -0.734 -0.656c-0.474 0 -0.718 0.248 -0.743 0.604h0.271c0.023 -0.217 0.178 -0.356 0.459 -0.356c0.291 0 0.459 0.155 0.459 0.442v0.22h-0.556c-0.467 0.002 -0.713 0.229 -0.713 0.582c0 0.375 0.271 0.619 0.668 0.619C15.937 7.265 16.128 7.131 16.226 6.967L16.226 6.967zM15.693 7.018c-0.231 0 -0.44 -0.123 -0.44 -0.377c0 -0.199 0.127 -0.342 0.426 -0.342h0.547v0.252C16.226 6.826 15.998 7.018 15.693 7.018z" />
  <path class="st1" d="M18.628 5.187h-0.306L17.737 6.898h-0.01l-0.584 -1.711H16.823l0.764 2.078l-0.039 0.125c-0.06 0.211 -0.164 0.334 -0.405 0.334c-0.044 0 -0.118 -0.006 -0.15 -0.012v0.244c0.051 0.007 0.127 0.016 0.195 0.016c0.398 0 0.535 -0.273 0.643 -0.568l0.058 -0.153L18.628 5.187L18.628 5.187z" />
</svg>