<svg xmlns="http://www.w3.org/2000/svg" viewBox="0 0 24 24">
  <title id="title2">moon icon</title>
  <path d="M9.387 3.382a9 9 0 0 0 7.338 11.529A9 9 0 0 0 18 15a9 9 0 0 0 2.618-.385 9.07 9.07 0 0 1-7.473 6.315A10 10 0 0 1 12 21 9 9 0 0 1 9.387 3.382M12 0a12 12 0 0 0-1.659.112A12 12 0 0 0 12 24a12 12 0 0 0 1.507-.092 12.03 12.03 0 0 0 10.38-10.249A12 12 0 0 0 24 11.958a1.47 1.47 0 0 0-1.5-1.458 1.54 1.54 0 0 0-.922.31A5.96 5.96 0 0 1 18 12a6 6 0 0 1-.862-.06 5.996 5.996 0 0 1-3.949-9.525A1.548 1.548 0 0 0 12.042 0Z"/>
</svg>