<?xml version="1.0" encoding="UTF-8" standalone="no"?>
<svg
   id="Layer_1"
   data-name="Layer 1"
   viewBox="0 0 40.54316 32.000001"
   version="1.1"
   sodipodi:docname="Docker_Logo.svg"
   width="40.543159"
   height="32"
   inkscape:version="1.2.2 (b0a8486541, 2022-12-01)"
   xmlns:inkscape="http://www.inkscape.org/namespaces/inkscape"
   xmlns:sodipodi="http://sodipodi.sourceforge.net/DTD/sodipodi-0.dtd"
   xmlns="http://www.w3.org/2000/svg"
   xmlns:svg="http://www.w3.org/2000/svg">
  <sodipodi:namedview
     id="namedview25"
     pagecolor="#ffffff"
     bordercolor="#000000"
     borderopacity="0.25"
     inkscape:showpageshadow="2"
     inkscape:pageopacity="0.0"
     inkscape:pagecheckerboard="0"
     inkscape:deskcolor="#d1d1d1"
     showgrid="false"
     inkscape:zoom="1.5802691"
     inkscape:cx="1169.1047"
     inkscape:cy="267.35953"
     inkscape:window-width="2752"
     inkscape:window-height="1080"
     inkscape:window-x="0"
     inkscape:window-y="0"
     inkscape:window-maximized="1"
     inkscape:current-layer="Layer_1" />
  <defs
     id="defs4">
    <style
       id="style2">
      .cls-1 {
        fill: #1d63ed;
        stroke-width: 0px;
      }
    </style>
  </defs>
  <path
     class="cls-1"
     d="M 39.883616,13.147493 C 38.889476,12.478302 36.277822,12.19254 34.379369,12.70438 34.277484,10.813162 33.301429,9.2191612 31.517523,7.8283291 L 30.857375,7.3852161 30.417276,8.050187 c -0.865125,1.3130613 -1.229864,3.063207 -1.100849,4.654193 0.101886,0.980275 0.44251,2.081727 1.100849,2.881139 -2.471183,1.433636 -4.749447,1.108084 -14.837954,1.108084 H 0.00344872 c -0.04521561,2.278264 0.32072938,6.659958 3.10721658,10.227168 0.308069,0.39428 0.645076,0.775297 1.0116239,1.142447 2.2656035,2.268618 5.6887265,3.932553 10.8071338,3.936773 7.809037,0.0072 14.499139,-4.214095 18.569146,-14.419559 1.338985,0.0217 4.874243,0.239944 6.604494,-3.102997 0.0422,-0.05607 0.440098,-0.886226 0.440098,-0.886226 L 39.883616,13.148096 Z M 10.168521,11.064561 H 5.7886351 v 4.379885 h 4.3798859 z m 5.65798,0 h -4.379886 v 4.379885 h 4.379886 z m 5.658583,0 h -4.379886 v 4.379885 h 4.379886 z m 5.658582,0 h -4.379885 v 4.379885 h 4.379885 z m -22.6337283,0 H 0.13005242 v 4.379885 H 4.5099377 Z M 10.168521,5.5325819 H 5.7886351 v 4.3798853 h 4.3798859 z m 5.65798,0 h -4.379886 v 4.3798853 h 4.379886 z m 5.658583,0 h -4.379886 v 4.3798853 h 4.379886 z M 21.485084,0 h -4.379886 v 4.3798853 h 4.379886 z"
     id="path6" />
</svg>
