<?xml version="1.0" encoding="UTF-8" standalone="no"?>
<!-- Created with Inkscape (http://www.inkscape.org/) -->

<svg
   width="32.979752"
   height="32.000061"
   id="svg2"
   version="1.1"
   inkscape:version="1.2.2 (b0a8486541, 2022-12-01)"
   sodipodi:docname="Kubernetes_logo_without_workmark.svg"
   inkscape:export-filename="/home/thockin/src/kubernetes/new.png"
   inkscape:export-xdpi="460.95001"
   inkscape:export-ydpi="460.95001"
   xmlns:inkscape="http://www.inkscape.org/namespaces/inkscape"
   xmlns:sodipodi="http://sodipodi.sourceforge.net/DTD/sodipodi-0.dtd"
   xmlns="http://www.w3.org/2000/svg"
   xmlns:svg="http://www.w3.org/2000/svg"
   xmlns:rdf="http://www.w3.org/1999/02/22-rdf-syntax-ns#"
   xmlns:cc="http://creativecommons.org/ns#"
   xmlns:dc="http://purl.org/dc/elements/1.1/">
  <defs
     id="defs4" />
  <sodipodi:namedview
     id="base"
     pagecolor="#ffffff"
     bordercolor="#666666"
     borderopacity="1.0"
     inkscape:pageopacity="0.0"
     inkscape:pageshadow="2"
     inkscape:zoom="15.96872"
     inkscape:cx="16.50101"
     inkscape:cy="16.000031"
     inkscape:document-units="px"
     inkscape:current-layer="g3052"
     showgrid="false"
     inkscape:window-width="1280"
     inkscape:window-height="720"
     inkscape:window-x="0"
     inkscape:window-y="0"
     inkscape:window-maximized="0"
     inkscape:snap-global="false"
     fit-margin-top="10"
     fit-margin-left="10"
     fit-margin-right="10"
     fit-margin-bottom="10"
     inkscape:showpageshadow="2"
     inkscape:pagecheckerboard="0"
     inkscape:deskcolor="#d1d1d1" />
  <metadata
     id="metadata7">
    <rdf:RDF>
      <cc:Work
         rdf:about="">
        <dc:format>image/svg+xml</dc:format>
        <dc:type
           rdf:resource="http://purl.org/dc/dcmitype/StillImage" />
      </cc:Work>
    </rdf:RDF>
  </metadata>
  <g
     inkscape:label="Layer 1"
     inkscape:groupmode="layer"
     id="layer1"
     transform="translate(-16.325907,-184.75233)">
    <g
       id="g3052">
      <path
         style="fill:#326ce5;fill-opacity:1;stroke:#ffffff;stroke-width:0;stroke-miterlimit:4;stroke-dasharray:none;stroke-opacity:1"
         d="m 32.701453,184.75521 a 2.1924657,2.1745235 0 0 0 -0.840217,0.21262 l -11.465375,5.47827 a 2.1924657,2.1745235 0 0 0 -1.186276,1.47515 L 16.381,204.22684 a 2.1924657,2.1745235 0 0 0 0.297669,1.66724 2.1924657,2.1745235 0 0 0 0.124639,0.17303 l 7.935875,9.86706 a 2.1924657,2.1745235 0 0 0 1.714161,0.81822 l 12.726434,-0.003 a 2.1924657,2.1745235 0 0 0 1.714161,-0.81675 l 7.932943,-9.86852 a 2.1924657,2.1745235 0 0 0 0.423774,-1.84027 l -2.832984,-12.30559 a 2.1924657,2.1745235 0 0 0 -1.186276,-1.47515 l -11.466841,-5.47534 a 2.1924657,2.1745235 0 0 0 -1.063102,-0.21262 z"
         id="path3055"
         inkscape:connector-curvature="0"
         inkscape:export-filename="new.png"
         inkscape:export-xdpi="250.55"
         inkscape:export-ydpi="250.55" />
      <path
         inkscape:connector-curvature="0"
         id="path3059"
         d="m 32.815061,188.94296 c -0.378996,4e-5 -0.686295,0.34141 -0.68625,0.7625 0,0.006 0.0013,0.0126 0.0015,0.0191 -5.59e-4,0.0572 -0.0033,0.12614 -0.0015,0.17596 0.009,0.24287 0.06198,0.42876 0.09385,0.65252 0.05773,0.47893 0.106101,0.87593 0.07625,1.24493 -0.02903,0.13915 -0.13152,0.2664 -0.222885,0.35486 l -0.01613,0.29034 c -0.411836,0.0341 -0.826426,0.0966 -1.24053,0.19062 -1.781888,0.40458 -3.316062,1.32244 -4.484092,2.56171 -0.07579,-0.0517 -0.208387,-0.14683 -0.247815,-0.17596 -0.122525,0.0165 -0.246357,0.0543 -0.407645,-0.0396 -0.307108,-0.20673 -0.586815,-0.49208 -0.925266,-0.83582 -0.15508,-0.16443 -0.267383,-0.321 -0.451635,-0.4795 -0.04184,-0.036 -0.105698,-0.0847 -0.1525,-0.1217 -0.144049,-0.11485 -0.313949,-0.17475 -0.47803,-0.18036 -0.210961,-0.007 -0.414047,0.0753 -0.546947,0.24194 -0.236268,0.29634 -0.160624,0.74927 0.16863,1.01178 0.0033,0.003 0.0069,0.005 0.01026,0.007 0.04524,0.0367 0.100648,0.0837 0.142236,0.11437 0.195522,0.14436 0.374127,0.21826 0.568943,0.33286 0.410436,0.25347 0.750694,0.46364 1.020578,0.71705 0.10539,0.11234 0.12381,0.31029 0.137837,0.39591 l 0.219952,0.19649 c -1.177462,1.77199 -1.722401,3.96076 -1.40036,6.19092 l -0.287404,0.0836 c -0.07575,0.0978 -0.182785,0.25173 -0.294739,0.29767 -0.353102,0.11122 -0.750499,0.15206 -1.230265,0.20236 -0.225246,0.0187 -0.419596,0.008 -0.658391,0.0528 -0.05256,0.01 -0.125788,0.029 -0.183293,0.0425 -0.002,4.2e-4 -0.0039,0.001 -0.0059,0.001 -0.0031,7.3e-4 -0.0073,0.002 -0.01026,0.003 -0.404484,0.0977 -0.664326,0.46951 -0.580674,0.83582 0.08367,0.36639 0.478763,0.5892 0.885674,0.50149 0.0029,-6.7e-4 0.0072,-7.9e-4 0.01027,-10e-4 0.0046,-0.001 0.0086,-0.003 0.0132,-0.004 0.05672,-0.0125 0.127808,-0.0263 0.177428,-0.0396 0.234772,-0.0629 0.404803,-0.15522 0.615866,-0.23608 0.454073,-0.16286 0.830152,-0.29891 1.19654,-0.35192 0.153025,-0.012 0.314249,0.0944 0.394448,0.1393 l 0.299135,-0.0513 c 0.688371,2.1342 2.130974,3.85919 3.957673,4.94159 l -0.12464,0.29914 c 0.04492,0.11615 0.09448,0.27331 0.06101,0.38802 -0.1332,0.34541 -0.361354,0.70999 -0.621156,1.11645 -0.125794,0.18778 -0.254536,0.33351 -0.368053,0.54841 -0.02716,0.0514 -0.06176,0.13042 -0.08798,0.18476 -0.176376,0.37738 -0.047,0.81202 0.291803,0.97513 0.340932,0.16413 0.764119,-0.009 0.947261,-0.38712 2.82e-4,-5.4e-4 0.0012,-9.3e-4 0.0015,-0.001 1.88e-4,-4.3e-4 -1.87e-4,-0.001 0,-0.001 0.02609,-0.0536 0.06304,-0.12408 0.08505,-0.17449 0.09723,-0.22275 0.129584,-0.41363 0.197957,-0.62907 0.181575,-0.4561 0.281336,-0.93466 0.531291,-1.23286 0.06845,-0.0817 0.180035,-0.11306 0.29573,-0.14404 l 0.155433,-0.28154 c 1.592488,0.61126 3.375024,0.77529 5.155679,0.37099 0.406212,-0.0922 0.798371,-0.2116 1.177477,-0.35486 0.04369,0.0775 0.124869,0.22644 0.146635,0.26395 0.11757,0.0383 0.245898,0.058 0.350457,0.21262 0.187007,0.3195 0.314897,0.69747 0.470698,1.15401 0.06838,0.21543 0.102181,0.40633 0.199423,0.62907 0.02216,0.0508 0.05894,0.12222 0.08505,0.17596 0.182757,0.37936 0.607284,0.55306 0.948727,0.38858 0.338761,-0.16319 0.46828,-0.5978 0.291803,-0.97512 -0.02623,-0.0543 -0.06228,-0.13334 -0.08945,-0.18476 -0.113529,-0.2149 -0.24225,-0.35917 -0.368054,-0.54695 -0.259823,-0.40644 -0.475316,-0.74409 -0.608534,-1.0895 -0.0557,-0.17814 0.0094,-0.28894 0.05279,-0.40471 -0.02599,-0.0298 -0.08159,-0.19802 -0.114376,-0.27714 1.898388,-1.12091 3.298629,-2.91023 3.956207,-4.97678 0.0888,0.0139 0.243134,0.0413 0.29327,0.0513 0.103209,-0.0681 0.198107,-0.15689 0.384183,-0.14224 0.366391,0.053 0.742459,0.18909 1.19654,0.35193 0.211067,0.0808 0.381091,0.1747 0.615866,0.23755 0.04962,0.0133 0.120704,0.0257 0.177428,0.0381 0.0046,0.001 0.0086,0.003 0.0132,0.004 0.0031,6.8e-4 0.0073,7.9e-4 0.01027,10e-4 0.406934,0.0876 0.802096,-0.13508 0.885674,-0.50149 0.08356,-0.36633 -0.176164,-0.7382 -0.580674,-0.83582 -0.05884,-0.0134 -0.142282,-0.0361 -0.199423,-0.0469 -0.238798,-0.0452 -0.433144,-0.0341 -0.65839,-0.0528 -0.479769,-0.0503 -0.877158,-0.0912 -1.230266,-0.20236 -0.143973,-0.0558 -0.246395,-0.22716 -0.296205,-0.29766 l -0.27714,-0.0806 c 0.143691,-1.03956 0.104946,-2.12146 -0.143702,-3.20397 -0.250963,-1.0926 -0.69448,-2.09188 -1.285987,-2.97229 0.07109,-0.0646 0.205345,-0.18351 0.243414,-0.21849 0.01113,-0.12313 0.0016,-0.25223 0.129038,-0.38858 0.269871,-0.25342 0.610155,-0.46355 1.020579,-0.71704 0.194809,-0.11461 0.374894,-0.18849 0.570409,-0.33286 0.04421,-0.0327 0.104587,-0.0844 0.151034,-0.12171 0.329183,-0.2626 0.404974,-0.71551 0.16863,-1.01178 -0.236344,-0.29628 -0.694327,-0.32419 -1.023511,-0.0616 -0.04686,0.0371 -0.110435,0.0855 -0.1525,0.12171 -0.184244,0.1585 -0.29803,0.31506 -0.453102,0.47949 -0.338432,0.34376 -0.618169,0.63055 -0.925265,0.83729 -0.133075,0.0775 -0.327991,0.0507 -0.416446,0.0455 l -0.26101,0.18622 c -1.488345,-1.56069 -3.514761,-2.5585 -5.696752,-2.75234 -0.0061,-0.0914 -0.0141,-0.25672 -0.01613,-0.30646 -0.08933,-0.0855 -0.197238,-0.15845 -0.224351,-0.34313 -0.02985,-0.369 0.01999,-0.766 0.07772,-1.24493 0.03187,-0.22376 0.08481,-0.40965 0.09385,-0.65252 0.0021,-0.0552 -0.0012,-0.13533 -0.0015,-0.19503 -4.5e-5,-0.42109 -0.307255,-0.76254 -0.686251,-0.7625 z m -0.85928,5.32285 -0.203822,3.59988 -0.01466,0.007 c -0.01367,0.32205 -0.278722,0.57921 -0.604136,0.57921 -0.133299,0 -0.256338,-0.0428 -0.356322,-0.11584 l -0.0059,0.003 -2.951758,-2.09248 c 0.907195,-0.89206 2.06757,-1.55129 3.40486,-1.85493 0.244281,-0.0555 0.488454,-0.0966 0.731707,-0.1261 z m 1.720027,0 c 1.561295,0.19202 3.005192,0.89899 4.111639,1.9825 l -2.932696,2.07928 -0.01026,-0.004 c -0.260304,0.19012 -0.627054,0.14295 -0.829953,-0.11144 -0.08312,-0.10421 -0.126726,-0.22675 -0.131971,-0.35046 l -0.0029,-0.001 z m -6.927028,3.32567 2.695147,2.41068 -0.0029,0.0147 c 0.243267,0.21148 0.27914,0.57847 0.07625,0.83289 -0.08311,0.10422 -0.19436,0.17412 -0.313799,0.20675 l -0.0029,0.0117 -3.454716,0.99712 c -0.175834,-1.60783 0.203109,-3.17077 1.002982,-4.47383 z m 12.1135,0.001 c 0.400447,0.64906 0.703686,1.37401 0.884208,2.15993 0.178358,0.7765 0.223119,1.5516 0.149568,2.3007 l -3.472312,-1.00005 -0.0029,-0.0147 c -0.310936,-0.085 -0.502027,-0.40127 -0.42964,-0.71852 0.02966,-0.12995 0.09864,-0.2399 0.192092,-0.32113 l -0.0015,-0.007 2.680484,-2.39894 z m -6.600032,2.59543 h 1.10416 l 0.686251,0.85782 -0.246346,1.07043 -0.991252,0.47656 -0.994184,-0.47803 -0.246346,-1.07043 z m 3.539764,2.93563 c 0.04692,-0.002 0.09364,0.002 0.139303,0.0103 l 0.0059,-0.007 3.57349,0.60414 c -0.522982,1.46931 -1.523726,2.7422 -2.860845,3.59402 l -1.387165,-3.35061 0.0044,-0.006 c -0.127425,-0.29609 9.4e-5,-0.6433 0.29327,-0.7845 0.07506,-0.0362 0.15348,-0.0562 0.231683,-0.0601 z m -6.001762,0.0147 c 0.272705,0.004 0.51731,0.1931 0.580674,0.47069 0.02966,0.12996 0.01523,0.25873 -0.03373,0.37246 l 0.01026,0.0132 -1.372502,3.31688 c -1.283214,-0.82343 -2.305299,-2.05636 -2.852046,-3.56909 l 3.542696,-0.6012 0.0059,0.007 c 0.03963,-0.007 0.07982,-0.0108 0.118774,-0.0103 z m 2.992816,1.45315 c 0.09499,-0.003 0.191383,0.016 0.283005,0.0601 0.120101,0.0578 0.212878,0.14889 0.271275,0.25808 h 0.0132 l 1.74642,3.15558 c -0.226652,0.076 -0.459663,0.14091 -0.697981,0.19502 -1.335645,0.30326 -2.667047,0.21137 -3.872625,-0.19942 l 1.742021,-3.14972 h 0.0029 c 0.104529,-0.1954 0.30277,-0.31198 0.511755,-0.31966 z"
         style="color:#000000;font-style:normal;font-variant:normal;font-weight:normal;font-stretch:normal;font-size:medium;line-height:normal;font-family:Sans;-inkscape-font-specification:Sans;text-indent:0;text-align:start;text-decoration:none;text-decoration-line:none;letter-spacing:normal;word-spacing:normal;text-transform:none;writing-mode:lr-tb;direction:ltr;baseline-shift:baseline;text-anchor:start;display:inline;overflow:visible;visibility:visible;fill:#ffffff;fill-opacity:1;stroke:#ffffff;stroke-width:0.0117308;stroke-miterlimit:4;stroke-dasharray:none;stroke-opacity:1;marker:none;enable-background:accumulate"
         sodipodi:nodetypes="ccccccccsccccscssccsccccccccscccsccccccccccccccscccscsccsccccscscsccccccccscccscsccccsccccscscscccccccccccccccscccsccccccccccccscccccscccccccccccccccccccccccscccscccccccccscccscccc"
         inkscape:export-filename="./path3059.png"
         inkscape:export-xdpi="250.55"
         inkscape:export-ydpi="250.55" />
    </g>
  </g>
</svg>
