<?xml version="1.0" encoding="UTF-8" standalone="no"?>
<svg
   height="32"
   viewBox="0 0 28.580414 33.055241"
   width="27.668024"
   version="1.1"
   id="svg36"
   sodipodi:docname="Helm_(package_manager)_logo.svg"
   inkscape:version="1.2.2 (b0a8486541, 2022-12-01)"
   xmlns:inkscape="http://www.inkscape.org/namespaces/inkscape"
   xmlns:sodipodi="http://sodipodi.sourceforge.net/DTD/sodipodi-0.dtd"
   xmlns="http://www.w3.org/2000/svg"
   xmlns:svg="http://www.w3.org/2000/svg">
  <defs
     id="defs40" />
  <sodipodi:namedview
     id="namedview38"
     pagecolor="#ffffff"
     bordercolor="#000000"
     borderopacity="0.25"
     inkscape:showpageshadow="2"
     inkscape:pageopacity="0.0"
     inkscape:pagecheckerboard="0"
     inkscape:deskcolor="#d1d1d1"
     showgrid="false"
     inkscape:zoom="27.21875"
     inkscape:cx="13.832377"
     inkscape:cy="16"
     inkscape:window-width="2752"
     inkscape:window-height="1080"
     inkscape:window-x="0"
     inkscape:window-y="0"
     inkscape:window-maximized="1"
     inkscape:current-layer="svg36" />
  <mask
     id="a"
     fill="#ffffff">
    <path
       d="M 0,0 H 313.30315 V 159.86486 H 0 Z"
       fill="#ffffff"
       fill-rule="evenodd"
       id="path2" />
  </mask>
  <mask
     id="b"
     fill="#ffffff">
    <path
       d="M 0,0 H 313.30315 V 159.86486 H 0 Z"
       fill="#ffffff"
       fill-rule="evenodd"
       id="path5" />
  </mask>
  <g
     fill="none"
     fill-rule="evenodd"
     transform="matrix(0.09447684,0,0,0.09447684,-1.1033545,-4.849679)"
     id="g34">
    <path
       d="m 11.678571,189 h 19.785836 v 26.789 h 23.9037 V 189 h 19.785836 v 75.25 H 55.368107 v -28.69533 h -23.9037 V 264.25 H 11.678571 Z m 86.173843,75.25 V 189 h 46.803046 v 16.35433 H 117.63825 V 217.595 h 23.9037 v 16.65533 h -23.9037 v 13.846 h 27.01721 V 264.25 Z m 68.497156,0 V 189 h 19.78584 v 55.384 h 27.11764 V 264.25 Z M 243.88594,189 274.61927,216.89267 305.25216,189 h 8.93878 v 75.25 H 294.30467 V 225.62167 L 274.61927,243.58133 254.83344,225.722 V 264.25 H 234.94716 V 189 Z"
       fill="#0f1689"
       id="path8" />
    <g
       transform="matrix(1,0,0,-1,11.958136,455)"
       id="g20">
      <g
         fill="#0f1689"
         mask="url(#a)"
         id="g16">
        <path
           d="m 203.46068,95.687543 c 6.93631,0 12.5593,-14.80922 12.5593,-33.077318 0,-18.268097 -5.62299,-33.077317 -12.5593,-33.077317 -6.93631,0 -12.55931,14.80922 -12.55931,33.077317 0,18.268098 5.62299,33.077318 12.55931,33.077318 z"
           transform="rotate(35,137.93117,151.55002)"
           id="path10" />
        <path
           d="m 30.142322,95.687543 c 6.936311,0 12.559301,-14.80922 12.559301,-33.077318 0,-18.268097 -5.62299,-33.077317 -12.559301,-33.077317 -6.93631,0 -12.559301,14.80922 -12.559301,33.077317 0,18.268098 5.622991,33.077318 12.559301,33.077318 z"
           transform="matrix(-0.81915204,0.57357644,0.57357644,0.81915204,58.084611,47.704768)"
           id="path12" />
        <path
           d="m 116.73282,66.275268 c 6.93631,0 12.5593,-14.80922 12.5593,-33.077318 0,-18.268097 -5.62299,-33.07731673 -12.55931,-33.07731673 -6.93631,0 -12.5593,14.80921973 -12.5593,33.07731673 0,18.268098 5.62299,33.077318 12.55931,33.077318 z"
           transform="matrix(-1,0,0,1,272.62852,53.670762)"
           id="path14" />
      </g>
      <path
         d="m 251.46701,173.09985 c -20.23008,-33.60997 -56.88957,-56.06791 -98.75578,-56.06791 -40.7208,0 -76.515877,21.2459 -97.058696,53.33459 m 2.198111,129.16953 c 20.840303,30.2327 55.555905,50.02659 94.860585,50.02659 39.3761,0 74.14642,-19.86588 94.97405,-50.19149"
         mask="url(#a)"
         stroke="#0f1689"
         stroke-width="20"
         id="path18" />
    </g>
    <g
       transform="translate(11.958136)"
       id="g32">
      <g
         fill="#0f1689"
         mask="url(#b)"
         id="g28">
        <path
           d="m 203.46068,95.687543 c 6.93631,0 12.5593,-14.80922 12.5593,-33.077318 0,-18.268097 -5.62299,-33.077317 -12.5593,-33.077317 -6.93631,0 -12.55931,14.80922 -12.55931,33.077317 0,18.268098 5.62299,33.077318 12.55931,33.077318 z"
           transform="rotate(35,141.83137,150.32029)"
           id="path22" />
        <path
           d="m 30.142322,95.687543 c 6.936311,0 12.559301,-14.80922 12.559301,-33.077318 0,-18.268097 -5.62299,-33.077317 -12.559301,-33.077317 -6.93631,0 -12.559301,14.80922 -12.559301,33.077317 0,18.268098 5.622991,33.077318 12.559301,33.077318 z"
           transform="matrix(-0.81915204,0.57357644,0.57357644,0.81915204,58.084611,45.245308)"
           id="path24" />
        <path
           d="m 116.73282,66.275268 c 6.93631,0 12.5593,-14.80922 12.5593,-33.077318 0,-18.268097 -5.62299,-33.07731673 -12.55931,-33.07731673 -6.93631,0 -12.5593,14.80921973 -12.5593,33.07731673 0,18.268098 5.62299,33.077318 12.55931,33.077318 z"
           transform="matrix(-1,0,0,1,272.62852,51.211302)"
           id="path26" />
      </g>
      <path
         d="m 251.46701,170.64039 c -20.23008,-33.60997 -56.88957,-56.06791 -98.75578,-56.06791 -40.7208,0 -76.515877,21.2459 -97.058696,53.33459 m 2.198111,129.16953 c 20.840303,30.2327 55.555905,50.02659 94.860585,50.02659 39.3761,0 74.14642,-19.86588 94.97405,-50.19149"
         mask="url(#b)"
         stroke="#0f1689"
         stroke-width="20"
         id="path30" />
    </g>
  </g>
</svg>
