<?xml version="1.0" encoding="UTF-8" standalone="no"?>
<svg
   version="1.1"
   x="0px"
   y="0px"
   width="32"
   height="32"
   viewBox="0.21 -0.077 32 32"
   enable-background="new 0.21 -0.077 110 110"
   xml:space="preserve"
   id="svg16"
   sodipodi:docname="Python-logo-notext.svg"
   inkscape:version="1.2.2 (b0a8486541, 2022-12-01)"
   xmlns:inkscape="http://www.inkscape.org/namespaces/inkscape"
   xmlns:sodipodi="http://sodipodi.sourceforge.net/DTD/sodipodi-0.dtd"
   xmlns="http://www.w3.org/2000/svg"
   xmlns:svg="http://www.w3.org/2000/svg"><defs
     id="defs20" /><sodipodi:namedview
     id="namedview18"
     pagecolor="#ffffff"
     bordercolor="#000000"
     borderopacity="0.25"
     inkscape:showpageshadow="2"
     inkscape:pageopacity="0.0"
     inkscape:pagecheckerboard="0"
     inkscape:deskcolor="#d1d1d1"
     showgrid="false"
     inkscape:zoom="15.96875"
     inkscape:cx="16"
     inkscape:cy="16"
     inkscape:window-width="1444"
     inkscape:window-height="720"
     inkscape:window-x="0"
     inkscape:window-y="0"
     inkscape:window-maximized="0"
     inkscape:current-layer="svg16" /><linearGradient
     id="SVGID_1_"
     gradientUnits="userSpaceOnUse"
     x1="63.815899"
     y1="56.682899"
     x2="118.4934"
     y2="1.8225"
     gradientTransform="matrix(0.29090909,0,0,-0.29090909,-15.355789,19.271102)"> <stop
   offset="0"
   style="stop-color:#387EB8"
   id="stop2" /> <stop
   offset="1"
   style="stop-color:#366994"
   id="stop4" /></linearGradient><path
     fill="url(#SVGID_1_)"
     d="m 16.1556,-0.077 c -7.5552,0 -7.6363636,2.9326545 -7.6363636,3.5362909 0,0.9157818 0,3.6637091 0,3.6637091 h 7.7818186 v 1.0999273 c 0,0 -8.1024005,0 -10.8727277,0 C 3.1158909,8.2229273 0.21,9.6288909 0.21,15.859291 c 0,5.723054 2.2667636,7.936291 4.5544727,7.936291 0.6792728,0 2.7182546,0 2.7182546,0 0,0 0,-2.840727 0,-3.818182 0,-1.597382 0.7915636,-4.554473 4.4817457,-4.554473 4.628363,0 5.809745,0 7.718109,0 1.135127,0 4.336291,-0.493382 4.336291,-4.190836 0,-3.9133092 0,-5.2043637 0,-7.0455274 C 24.019164,3.2693273 23.862364,-0.077 16.1556,-0.077 Z m -4.290909,2.4637091 c 0.7744,0 1.400145,0.6254545 1.400145,1.4001454 0,0.7741091 -0.625745,1.4001455 -1.400145,1.4001455 -0.7744,0 -1.400146,-0.6257455 -1.400146,-1.4001455 0,-0.7746909 0.625746,-1.4001454 1.400146,-1.4001454 z"
     id="path7"
     style="fill:url(#SVGID_1_);stroke-width:0.290909" /><linearGradient
     id="SVGID_2_"
     gradientUnits="userSpaceOnUse"
     x1="97.044403"
     y1="21.632099"
     x2="155.6665"
     y2="-34.5308"
     gradientTransform="matrix(0.29090909,0,0,-0.29090909,-15.355789,19.271102)"> <stop
   offset="0"
   style="stop-color:#FFE052"
   id="stop9" /> <stop
   offset="1"
   style="stop-color:#FFC331"
   id="stop11" /></linearGradient><path
     fill="url(#SVGID_2_)"
     d="m 16.2644,31.923 c 7.551709,0 7.645673,-2.987927 7.645673,-3.536291 0,-0.915782 0,-3.663709 0,-3.663709 h -7.791128 v -1.099927 c 0,0 8.154764,0 10.872728,0 2.329891,0 5.218327,-1.441164 5.218327,-7.636364 0,-6.7845817 -3.0656,-7.9362908 -4.554473,-7.9362908 -0.679563,0 -2.718254,0 -2.718254,0 0,0 0,2.9719268 0,3.8181818 0,1.597382 -0.765382,4.554473 -4.481746,4.554473 -4.628363,0 -5.665745,0 -7.7184,0 -1.132218,0 -4.3362906,0.551563 -4.3362906,4.190836 0,4.210909 0,5.313455 0,7.045527 0,1.521455 0.9297454,4.263564 7.8635636,4.263564 z m 4.2912,-2.463709 c -0.7744,0 -1.400145,-0.625746 -1.400145,-1.400146 0,-0.7744 0.625454,-1.400145 1.400145,-1.400145 0.774109,0 1.400145,0.625745 1.400145,1.400145 0,0.7744 -0.626036,1.400146 -1.400145,1.400146 z"
     id="path14"
     style="fill:url(#SVGID_2_);stroke-width:0.290909" /></svg>
