<?xml version="1.0" encoding="UTF-8" standalone="no"?>
<svg
   width="33.960705"
   height="32"
   viewBox="0 0 21.734851 20.48"
   version="1.1"
   id="svg33"
   sodipodi:docname="Microsoft_Azure.svg"
   inkscape:version="1.2.2 (b0a8486541, 2022-12-01)"
   xmlns:inkscape="http://www.inkscape.org/namespaces/inkscape"
   xmlns:sodipodi="http://sodipodi.sourceforge.net/DTD/sodipodi-0.dtd"
   xmlns="http://www.w3.org/2000/svg"
   xmlns:svg="http://www.w3.org/2000/svg">
  <sodipodi:namedview
     id="namedview35"
     pagecolor="#ffffff"
     bordercolor="#000000"
     borderopacity="0.25"
     inkscape:showpageshadow="2"
     inkscape:pageopacity="0.0"
     inkscape:pagecheckerboard="0"
     inkscape:deskcolor="#d1d1d1"
     showgrid="false"
     inkscape:zoom="3.4066667"
     inkscape:cx="68.835616"
     inkscape:cy="64.726027"
     inkscape:window-width="2752"
     inkscape:window-height="1080"
     inkscape:window-x="0"
     inkscape:window-y="0"
     inkscape:window-maximized="1"
     inkscape:current-layer="svg33" />
  <defs
     id="defs23">
    <linearGradient
       id="e399c19f-b68f-429d-b176-18c2117ff73c"
       x1="-1032.172"
       x2="-1059.213"
       y1="145.312"
       y2="65.426003"
       gradientTransform="matrix(0.2470059,0,0,-0.2470059,264.54245,37.410773)"
       gradientUnits="userSpaceOnUse">
      <stop
         offset="0"
         stop-color="#114a8b"
         id="stop2" />
      <stop
         offset="1"
         stop-color="#0669bc"
         id="stop4" />
    </linearGradient>
    <linearGradient
       id="ac2a6fc2-ca48-4327-9a3c-d4dcc3256e15"
       x1="-1023.725"
       x2="-1029.98"
       y1="108.083"
       y2="105.968"
       gradientTransform="matrix(0.2470059,0,0,-0.2470059,264.54245,37.410773)"
       gradientUnits="userSpaceOnUse">
      <stop
         offset="0"
         stop-opacity=".3"
         id="stop7" />
      <stop
         offset=".071"
         stop-opacity=".2"
         id="stop9" />
      <stop
         offset=".321"
         stop-opacity=".1"
         id="stop11" />
      <stop
         offset=".623"
         stop-opacity=".05"
         id="stop13" />
      <stop
         offset="1"
         stop-opacity="0"
         id="stop15" />
    </linearGradient>
    <linearGradient
       id="a7fee970-a784-4bb1-af8d-63d18e5f7db9"
       x1="-1027.165"
       x2="-997.48199"
       y1="147.642"
       y2="68.560997"
       gradientTransform="matrix(0.2470059,0,0,-0.2470059,264.54245,37.410773)"
       gradientUnits="userSpaceOnUse">
      <stop
         offset="0"
         stop-color="#3ccbf4"
         id="stop18" />
      <stop
         offset="1"
         stop-color="#2892df"
         id="stop20" />
    </linearGradient>
  </defs>
  <path
     fill="url(#e399c19f-b68f-429d-b176-18c2117ff73c)"
     d="M 7.2457896,2.47e-4 H 13.67733 L 7.0007596,19.782208 a 1.0255685,1.0255685 0 0 1 -0.971474,0.697545 H 1.0239583 A 1.0238394,1.0238394 0 0 1 0.05371919,19.128631 L 6.2740686,0.6977917 A 1.0255685,1.0255685 0 0 1 7.2457896,0 Z"
     id="path25"
     style="fill:url(#e399c19f-b68f-429d-b176-18c2117ff73c);stroke-width:0.247006" />
  <path
     fill="#0078d4"
     d="M 16.591752,13.268663 H 6.3928786 a 0.47202827,0.47202827 0 0 0 -0.322343,0.817342 l 6.5535614,6.116854 a 1.0302616,1.0302616 0 0 0 0.702978,0.276894 h 5.774998 z"
     id="path27"
     style="stroke-width:0.247006" />
  <path
     fill="url(#ac2a6fc2-ca48-4327-9a3c-d4dcc3256e15)"
     d="m 7.2457896,2.47e-4 a 1.0171703,1.0171703 0 0 0 -0.973944,0.71113 L 0.06137629,19.111834 a 1.0226044,1.0226044 0 0 0 0.96529911,1.367919 h 5.1345112 a 1.0974472,1.0974472 0 0 0 0.84229,-0.716317 l 1.238488,-3.650006 4.4238764,4.126233 a 1.046564,1.046564 0 0 0 0.658517,0.24009 h 5.753509 l -2.523412,-7.21109 -7.3560834,0.0017 L 13.700548,2.18e-4 Z"
     id="path29"
     style="fill:url(#ac2a6fc2-ca48-4327-9a3c-d4dcc3256e15);stroke-width:0.247006" />
  <path
     fill="url(#a7fee970-a784-4bb1-af8d-63d18e5f7db9)"
     d="M 15.460465,0.6968036 A 1.0238394,1.0238394 0 0 0 14.490226,2.47e-4 H 7.3223616 a 1.0240865,1.0240865 0 0 1 0.970239,0.6965566 L 14.513198,19.128384 A 1.0240865,1.0240865 0 0 1 13.542959,20.48 h 7.168111 a 1.0240865,1.0240865 0 0 0 0.969992,-1.351616 z"
     id="path31"
     style="fill:url(#a7fee970-a784-4bb1-af8d-63d18e5f7db9);stroke-width:0.247006" />
</svg>
