<?xml version="1.0" encoding="UTF-8" standalone="no"?>
<svg
   version="1.1"
   width="15.219512"
   height="32.000057"
   id="svg58"
   sodipodi:docname="crossplane-icon-seeklogo.svg"
   inkscape:version="1.2.2 (b0a8486541, 2022-12-01)"
   xmlns:inkscape="http://www.inkscape.org/namespaces/inkscape"
   xmlns:sodipodi="http://sodipodi.sourceforge.net/DTD/sodipodi-0.dtd"
   xmlns="http://www.w3.org/2000/svg"
   xmlns:svg="http://www.w3.org/2000/svg">
  <defs
     id="defs62" />
  <sodipodi:namedview
     id="namedview60"
     pagecolor="#ffffff"
     bordercolor="#000000"
     borderopacity="0.25"
     inkscape:showpageshadow="2"
     inkscape:pageopacity="0.0"
     inkscape:pagecheckerboard="0"
     inkscape:deskcolor="#d1d1d1"
     showgrid="false"
     inkscape:zoom="27.218701"
     inkscape:cx="7.623435"
     inkscape:cy="16.000029"
     inkscape:window-width="2752"
     inkscape:window-height="1080"
     inkscape:window-x="0"
     inkscape:window-y="0"
     inkscape:window-maximized="1"
     inkscape:current-layer="svg58" />
  <path
     d="m 8.7045447,0.08603574 c 0.035262,0.00573 0.070568,0.011064 0.105902,0.01633 0.5660927,0.08498 1.1264295,0.227429 1.6536293,0.4526012 0.01208,0.00508 0.02416,0.010158 0.03661,0.01539 0.06285,0.026486 0.125176,0.053967 0.187267,0.082188 0.03482,0.015636 0.06984,0.030751 0.104907,0.045835 0.345388,0.14994882 0.671946,0.33463896 0.983793,0.54524726 0.04243,0.028212 0.08548,0.054934 0.128928,0.081541 0.116179,0.073429 0.223355,0.1589528 0.331719,0.2432635 0.02994,0.023168 0.06007,0.046051 0.09034,0.068788 0.100066,0.075353 0.194734,0.1543997 0.286578,0.2396266 0.03367,0.031227 0.06778,0.061633 0.102519,0.091655 0.23924,0.2086564 0.23924,0.2086564 0.311677,0.2956935 0.03795,0.048692 0.03795,0.048692 0.07992,0.079917 0.101867,0.08199 0.179973,0.1933759 0.261354,0.2948818 0.03482,0.042386 0.03482,0.042386 0.07461,0.080729 0.0443,0.044645 0.08316,0.09219 0.121561,0.141853 0.0076,0.00979 0.0152,0.019584 0.02303,0.029672 0.01604,0.020721 0.03204,0.041469 0.04801,0.06224 0.02265,0.029393 0.0455,0.058618 0.06837,0.087839 0.203047,0.2623086 0.390665,0.5455171 0.546871,0.8381937 0.0063,0.011711 0.01254,0.023421 0.019,0.035487 0.0476,0.089062 0.09441,0.1785198 0.140831,0.2681986 0.0085,0.01638 0.01706,0.03276 0.02585,0.049636 0.02405,0.047077 0.04715,0.094518 0.07005,0.1421652 0.0053,0.010886 0.01068,0.021773 0.01618,0.032989 0.193569,0.3972098 0.343657,0.82225 0.452328,1.2503211 0.01036,0.040796 0.02116,0.081448 0.03204,0.1221078 0.04615,0.177671 0.07814,0.3577159 0.108825,0.5385667 0.002,0.011361 0.0039,0.022722 0.0059,0.034428 0.01474,0.086233 0.02769,0.1726594 0.04002,0.2592679 0.0021,0.014417 0.0041,0.028835 0.0062,0.043689 0.04279,0.3105841 0.04868,0.6163139 0.04797,0.9291251 -1.09e-4,0.071858 6.4e-5,0.1437164 1.98e-4,0.2155747 1.96e-4,0.1255088 2.17e-4,0.2510166 1.19e-4,0.3765254 -1.46e-4,0.1866429 -1.6e-5,0.3732848 1.64e-4,0.5599276 3.14e-4,0.3334544 3.52e-4,0.6669083 2.69e-4,1.0003627 -7.3e-5,0.2917904 -6.3e-5,0.5835804 2.9e-5,0.8753704 1.2e-5,0.03921 2.5e-5,0.07843 3.7e-5,0.117646 1.8e-5,0.0591 3.6e-5,0.118201 5.5e-5,0.177302 1.71e-4,0.549018 2.47e-4,1.098037 1.2e-4,1.647056 -7e-6,0.031 -7e-6,0.031 -1.4e-5,0.06264 -3.9e-5,0.167836 -8.1e-5,0.335672 -1.23e-4,0.503507 -1.61e-4,0.654823 -2.8e-5,1.309644 3.44e-4,1.964466 4.17e-4,0.7365 6.22e-4,1.472998 5.08e-4,2.209498 -1.1e-5,0.07856 -2.2e-5,0.15713 -3.3e-5,0.235696 -2e-6,0.01934 -5e-6,0.03869 -8e-6,0.05862 -3.6e-5,0.291575 9.1e-5,0.583149 3.01e-4,0.874724 2.38e-4,0.331633 2.51e-4,0.663265 -3.3e-5,0.994897 -1.53e-4,0.185401 -1.31e-4,0.370799 1.47e-4,0.556199 1.69e-4,0.124057 1.02e-4,0.248112 -1.51e-4,0.372169 -1.37e-4,0.07053 -1.78e-4,0.141065 6.8e-5,0.211599 9.73e-4,0.298778 -0.0093,0.584361 -0.07219,0.878005 -0.0046,0.02282 -0.0091,0.04565 -0.01359,0.06849 -0.104069,0.519259 -0.316107,1.049663 -0.62575,1.481905 -0.0084,0.01188 -0.01686,0.02376 -0.02554,0.036 -0.10681,0.149855 -0.215393,0.293878 -0.342075,0.427518 -0.02302,0.02594 -0.04599,0.05191 -0.06893,0.07792 -0.123036,0.136587 -0.252747,0.268488 -0.394591,0.3856 -0.008,0.0067 -0.01591,0.01333 -0.02411,0.02019 -0.780115,0.651115 -0.780115,0.651115 -1.094732,0.651115 0,0.01055 0,0.0211 0,0.03197 -0.0096,0.0028 -0.01928,0.0056 -0.0292,0.0085 -0.08496,0.0251 -0.16895,0.05213 -0.252696,0.081 -0.144929,0.04986 -0.286573,0.09006 -0.437355,0.11826 -0.01078,0.0028 -0.02155,0.0056 -0.03265,0.0086 -0.0383,0.0091 -0.076,0.01281 -0.115193,0.01642 -0.01426,0.0013 -0.02852,0.0027 -0.04321,0.0041 -0.01619,0.0015 -0.01619,0.0015 -0.03272,0.0029 0,0.01055 0,0.0211 0,0.03197 -0.01154,-3.3e-4 -0.02308,-6.6e-4 -0.03496,-9.99e-4 -0.04397,-3.44e-4 -0.04397,-3.44e-4 -0.08235,0.0086 -0.04298,0.0085 -0.08477,0.01292 -0.128429,0.01642 -0.04667,0.0038 -0.09214,0.0084 -0.138338,0.01615 -0.07662,0.01101 -0.152951,0.0099 -0.230214,0.0096 -0.02458,3e-6 -0.02458,3e-6 -0.04965,7e-6 -0.05388,-1.1e-5 -0.107754,-1.36e-4 -0.161632,-2.61e-4 -0.03747,-3e-5 -0.07493,-5.3e-5 -0.112401,-6.9e-5 -0.0984,-6e-5 -0.196809,-2.17e-4 -0.295214,-3.94e-4 -0.100498,-1.64e-4 -0.200996,-2.37e-4 -0.301494,-3.17e-4 -0.1970352,-1.72e-4 -0.3940705,-4.44e-4 -0.5911057,-7.81e-4 1.47e-5,0.01517 2.94e-5,0.03034 4.46e-5,0.04597 0.00307,3.195828 0.00307,3.195828 -0.00467,4.348045 -3.713e-4,0.06003 -6.546e-4,0.120054 -9.114e-4,0.180081 -4.063e-4,0.09255 -0.00104,0.185098 -0.00187,0.277646 -2.604e-4,0.0326 -4.489e-4,0.0652 -5.516e-4,0.0978 -0.00198,0.560185 -0.1328872,1.080584 -0.5354828,1.491774 -0.032525,0.02985 -0.06556,0.05886 -0.099237,0.0874 -0.054353,0.04648 -0.1008559,0.09286 -0.1405145,0.15235 -0.013846,0.003 -0.013846,0.003 -0.027971,0.006 -0.041126,0.0087 -0.041126,0.0087 -0.082914,0.04995 -0.048335,0.03946 -0.069454,0.04745 -0.1288664,0.05594 -0.00527,0.01055 -0.010549,0.0211 -0.015983,0.03197 -0.037141,0.01701 -0.073805,0.03236 -0.111884,0.04695 -0.010969,0.0043 -0.021938,0.0085 -0.033239,0.01294 -0.078811,0.03046 -0.1573943,0.06009 -0.2384794,0.08396 -0.013683,0.0041 -0.027367,0.0082 -0.041465,0.01236 -0.1455528,0.03859 -0.2841713,0.04246 -0.4335896,0.04096 -0.040572,-3.8e-4 -0.081128,-3.28e-4 -0.121702,-2.22e-4 -0.026264,-9e-5 -0.052529,-2.03e-4 -0.078793,-3.44e-4 -0.011891,1.5e-5 -0.023782,2.9e-5 -0.036034,4.4e-5 -0.085857,-0.0011 -0.1643086,-0.01594 -0.2474223,-0.03682 -0.016998,-0.0038 -0.033996,-0.0075 -0.051509,-0.01136 -0.085341,-0.01996 -0.1602582,-0.04271 -0.2370667,-0.08498 -0.045902,-0.02295 -0.09404,-0.03654 -0.143289,-0.05057 -0.035944,-0.01468 -0.053542,-0.03254 -0.079605,-0.06087 -0.039407,-0.02593 -0.075305,-0.04634 -0.1198757,-0.06194 -0.052171,-0.02348 -0.080326,-0.05651 -0.1198758,-0.0979 -0.03131,-0.02787 -0.063042,-0.05518 -0.094902,-0.08242 -0.071087,-0.06355 -0.133087,-0.131503 -0.1908022,-0.207285 -0.00689,-0.009 -0.013786,-0.01801 -0.020888,-0.02728 -0.062739,-0.08298 -0.1191179,-0.169384 -0.1729106,-0.25842 -0.012609,-0.01966 -0.012609,-0.01966 -0.025474,-0.03971 -0.029876,-0.05344 -0.04308,-0.107428 -0.058502,-0.166327 -0.00858,-0.03667 -0.00858,-0.03667 -0.043892,-0.0497 -0.00527,-0.01055 -0.010549,-0.0211 -0.015983,-0.03197 0.00527,-0.01582 0.010549,-0.03165 0.015983,-0.04795 -0.010549,-0.0053 -0.021098,-0.01055 -0.031967,-0.01598 -0.1002162,-0.31969 -0.084247,-0.668548 -0.082276,-0.999167 3.394e-4,-0.06313 4.849e-4,-0.126267 6.554e-4,-0.1894 3.205e-4,-0.109033 7.601e-4,-0.218065 0.00128,-0.327097 7.57e-4,-0.157636 0.00133,-0.315272 0.00186,-0.472909 8.639e-4,-0.255838 0.00187,-0.511675 0.00298,-0.767512 0.00107,-0.248325 0.00207,-0.496651 0.00298,-0.744977 5.61e-5,-0.01534 1.123e-4,-0.03068 1.701e-4,-0.04649 2.813e-4,-0.07697 5.611e-4,-0.153944 8.404e-4,-0.230915 0.00231,-0.637213 0.00486,-1.274425 0.00757,-1.911637 -0.019114,7.1e-5 -0.038228,1.42e-4 -0.057921,2.15e-4 -0.1814858,6.53e-4 -0.3629714,0.0011 -0.5444581,0.0014 -0.09327,1.66e-4 -0.1865384,3.9e-4 -0.2798076,7.56e-4 -0.090267,3.51e-4 -0.180533,5.39e-4 -0.2708007,6.21e-4 -0.034176,5.8e-5 -0.068351,1.72e-4 -0.1025268,3.47e-4 -0.2557103,0.0013 -0.5053991,-0.01395 -0.7583978,-0.05133 0,-0.01055 0,-0.0211 0,-0.03197 -0.014804,-0.0015 -0.014804,-0.0015 -0.029907,-0.0029 -0.028288,-0.0028 -0.056571,-0.0057 -0.08485,-0.0086 -0.029031,-0.0029 -0.058085,-0.0056 -0.08716,-0.008 -0.03404,-0.0031 -0.067935,-0.0077 -0.1017695,-0.01249 -0.00528,-0.01055 -0.010549,-0.0211 -0.015983,-0.03197 -0.031413,-0.006 -0.063133,-0.01035 -0.094902,-0.01399 -0.099911,-0.01402 -0.1809617,-0.04166 -0.2727173,-0.08191 -0.033568,-0.01315 -0.067204,-0.02613 -0.1008954,-0.03896 -0.017637,-0.0068 -0.035273,-0.01364 -0.053445,-0.02067 -0.034483,-0.01309 -0.069108,-0.02582 -0.1038923,-0.03809 -0.1365312,-0.04917 -0.2584035,-0.115163 -0.3830795,-0.188406 -0.027248,-0.01596 -0.054678,-0.03161 -0.082126,-0.04722 -0.099627,-0.05691 -0.1953163,-0.118151 -0.2900119,-0.182936 -0.038897,-0.02701 -0.038897,-0.02701 -0.073923,-0.04183 -0.044941,-0.0247 -0.075463,-0.06081 -0.1113845,-0.09721 -0.030299,-0.02342 -0.060965,-0.04636 -0.091905,-0.06893 -0.1392218,-0.104207 -0.2633019,-0.22536 -0.3875983,-0.34664 -0.011525,-0.01125 -0.02305,-0.02249 -0.034925,-0.03407 -0.011283,-0.01113 -0.022566,-0.02226 -0.034191,-0.03373 -0.010131,-0.01 -0.020261,-0.01998 -0.030699,-0.03027 -0.028014,-0.02975 -0.051993,-0.0607 -0.076003,-0.09372 -0.015167,-0.01778 -0.030484,-0.03543 -0.045952,-0.05294 -0.033778,-0.0389 -0.064528,-0.07855 -0.093903,-0.120874 -0.030268,-0.05019 -0.030268,-0.05019 -0.06793,-0.06593 -0.015095,-0.02588 -0.030086,-0.05182 -0.044454,-0.07811 -0.029368,-0.05092 -0.063105,-0.09873 -0.09665,-0.146972 -0.01873,-0.03066 -0.01873,-0.03066 -0.01873,-0.06262 -0.010549,0 -0.021098,0 -0.031967,0 -0.1311374,-0.228276 -0.25517,-0.457899 -0.3516355,-0.703271 -0.00746,-0.01858 -0.014917,-0.03717 -0.022602,-0.05632 -0.057316,-0.14505 -0.057316,-0.14505 -0.057316,-0.199419 -0.010549,-0.0053 -0.021098,-0.01055 -0.031967,-0.01598 -0.011083,-0.03607 -0.019941,-0.0711 -0.027971,-0.107888 -0.00263,-0.01169 -0.00527,-0.02339 -0.00798,-0.03543 -0.00952,-0.04276 -0.018754,-0.08558 -0.027979,-0.128398 -0.00389,-0.01779 -0.00778,-0.03558 -0.011785,-0.05391 -0.012897,-0.05925 -0.025563,-0.118537 -0.038164,-0.177847 -0.00405,-0.01874 -0.00811,-0.03749 -0.012284,-0.0568 -0.048368,-0.231617 -0.070506,-0.459652 -0.069702,-0.69628 -3.83e-5,-0.02392 -9.06e-5,-0.04785 -1.553e-4,-0.07177 -1.365e-4,-0.06516 -7.72e-5,-0.130321 1.69e-5,-0.195483 6.71e-5,-0.07111 -5.19e-5,-0.142228 -1.463e-4,-0.213342 -1.397e-4,-0.124453 -1.612e-4,-0.248904 -1.039e-4,-0.373357 8.51e-5,-0.185078 -1.28e-5,-0.370155 -1.451e-4,-0.555233 -2.434e-4,-0.349853 -2.709e-4,-0.699706 -2.314e-4,-1.049559 2.93e-5,-0.270259 1.1e-6,-0.540517 -6.76e-5,-0.810776 -9.6e-6,-0.03886 -1.92e-5,-0.07772 -2.88e-5,-0.11658 -1.45e-5,-0.05856 -2.9e-5,-0.117125 -4.37e-5,-0.175688 -1.347e-4,-0.544393 -2.04e-4,-1.088786 -1.373e-4,-1.63318 2.5e-6,-0.02051 5e-6,-0.04103 7.6e-6,-0.06217 1.29e-5,-0.103974 2.64e-5,-0.207948 4.01e-5,-0.311922 2.8e-6,-0.02065 5.5e-6,-0.0413 8.3e-6,-0.06257 5.6e-6,-0.04176 1.11e-5,-0.08351 1.67e-5,-0.12527 8.56e-5,-0.649431 -4.1e-5,-1.298863 -3.361e-4,-1.948294 -3.315e-4,-0.730118 -5.026e-4,-1.460236 -4.384e-4,-2.190354 6.3e-6,-0.07792 1.21e-5,-0.155846 1.76e-5,-0.233768 1.4e-6,-0.01919 2.9e-6,-0.03837 4.4e-6,-0.05814 1.86e-5,-0.289094 -8.74e-5,-0.5781877 -2.572e-4,-0.8672813 -1.93e-4,-0.3290141 -2.171e-4,-0.6580277 -1.93e-5,-0.9870418 1.056e-4,-0.183894 8.06e-5,-0.367787 -1.373e-4,-0.5516809 -1.325e-4,-0.1231403 -8.77e-5,-0.2462797 9.55e-5,-0.3694199 9.93e-5,-0.069961 1.274e-4,-0.1399194 -6.17e-5,-0.2098801 -0.00108,-0.429145 0.0299,-0.8451913 0.1060661,-1.2684107 0.00356,-0.020168 0.00356,-0.020168 0.0072,-0.040744 0.039136,-0.2204259 0.088753,-0.4354144 0.1523626,-0.6502117 0.011249,-0.038795 0.021573,-0.077664 0.031428,-0.1168321 0.046569,-0.1831377 0.1137478,-0.3568416 0.1829978,-0.5325105 0.028326,-0.071878 0.054736,-0.1439328 0.079543,-0.2170874 0.045471,-0.1293935 0.1054504,-0.2516628 0.1658281,-0.3746117 0.00534,-0.01093 0.010688,-0.02186 0.016194,-0.033122 0.099768,-0.2035372 0.2001559,-0.4078346 0.32520192,-0.5972247 0.02591,-0.040468 0.049511,-0.081933 0.073174,-0.1237389 0.028369,-0.048616 0.059523,-0.095277 0.090906,-0.1419857 0.00696,-0.010377 0.013915,-0.020753 0.021084,-0.031444 0.1668223,-0.2475467 0.3402458,-0.4957619 0.5436435,-0.7147201 0.033954,-0.037459 0.065331,-0.076212 0.096587,-0.1159423 0.093906,-0.1186873 0.1915873,-0.2288108 0.3074313,-0.3264117 0.031939,-0.02731 0.031939,-0.02731 0.068179,-0.073174 0.039751,-0.047702 0.081055,-0.085131 0.1281796,-0.1251827 C 2.4726513,2.0251032 2.511197,1.988917 2.5497767,1.9523672 2.6598714,1.8483107 2.7743559,1.7531876 2.8946575,1.6612315 2.9311759,1.6330638 2.9669239,1.60397 3.0027252,1.5748991 3.1251704,1.4768629 3.2517202,1.3865924 3.3847042,1.3034305 3.4349034,1.2719382 3.4845125,1.2396127 3.5341743,1.2072802 3.7381943,1.0759342 3.9456711,0.95153882 4.160525,0.83866236 4.1744,0.83133136 4.188276,0.82400026 4.202571,0.81644706 4.9071728,0.45181934 5.6836289,0.20827824 6.468119,0.09614094 c 0.031241,-0.0046 0.062417,-0.00963 0.093589,-0.014678 0.6856319,-0.1099025 1.4576953,-0.1088163 2.1427515,0.00456 z"
     fill="#fecc3b"
     id="path2"
     style="stroke-width:0.0159834" />
  <path
     d="m 7.3118439,0.02370484 c 0.011011,-7.81e-5 0.022022,-1.562e-4 0.033366,-2.367e-4 0.08328,-5.84e-4 0.1665582,-8.486e-4 0.24984,-9.496e-4 0.012242,-1.6e-5 0.024483,-3.21e-5 0.037096,-4.86e-5 0.360504,-2.897e-4 0.7159177,0.00457 1.0723982,0.063566 0.035262,0.00573 0.070568,0.011064 0.105902,0.01633 0.5660927,0.08498 1.1264295,0.227429 1.6536299,0.4526012 0.01208,0.00508 0.02416,0.010158 0.03661,0.01539 0.06285,0.026486 0.125176,0.053967 0.187266,0.082188 0.03482,0.015636 0.06984,0.030751 0.104907,0.045835 0.345388,0.14994882 0.671946,0.33463896 0.983793,0.54524726 0.04243,0.028212 0.08548,0.054934 0.128929,0.081541 0.116178,0.073429 0.223354,0.1589528 0.331719,0.2432635 0.02994,0.023168 0.06007,0.046051 0.09034,0.068788 0.100065,0.075353 0.194734,0.1543997 0.286578,0.2396266 0.03367,0.031227 0.06778,0.061633 0.102518,0.091655 0.23924,0.2086564 0.23924,0.2086564 0.311677,0.2956935 0.03795,0.048692 0.03795,0.048692 0.07992,0.079917 0.103467,0.083278 0.182912,0.1968383 0.266037,0.2995644 0.02979,0.037224 0.02979,0.037224 0.06262,0.069053 -0.01582,0.00445 -0.01582,0.00445 -0.03197,0.00899 -0.102624,0.049174 -0.177533,0.1341385 -0.248867,0.2208961 -0.03536,0.039999 -0.07779,0.071633 -0.118752,0.1057653 -0.02507,0.02813 -0.04902,0.057021 -0.07305,0.086036 -0.02285,0.025848 -0.02285,0.025848 -0.06181,0.056816 -0.03469,0.027922 -0.05885,0.052812 -0.08715,0.086541 -0.08281,0.095565 -0.173068,0.1837725 -0.262569,0.272989 -0.02003,0.020026 -0.04006,0.040056 -0.06008,0.060089 -0.05481,0.054811 -0.109663,0.1095713 -0.164527,0.1643237 -0.05924,0.059143 -0.118443,0.1183327 -0.177647,0.1775169 -0.102522,0.1024753 -0.205071,0.2049221 -0.307639,0.3073505 -0.148374,0.1481722 -0.296695,0.2963963 -0.445002,0.4446346 -0.240737,0.2406244 -0.481504,0.4812189 -0.722296,0.721789 -0.02161,0.021585 -0.02161,0.021585 -0.04365,0.043607 C 10.529733,5.572235 10.427476,5.6743946 10.32522,5.7765539 10.208329,5.8933345 10.091438,6.0101155 9.9745486,6.1268978 9.9601482,6.141285 9.9457477,6.1556722 9.930911,6.1704953 9.6909501,6.4102375 9.4510206,6.650011 9.2111135,6.8898069 9.063136,7.0377127 8.9151301,7.1855899 8.7670877,7.3334307 8.665725,7.434659 8.5643904,7.5359153 8.463078,7.6371939 8.4045959,7.6956544 8.3461006,7.7541015 8.2875703,7.8125137 8.2340142,7.865962 8.180495,7.9194469 8.1270049,7.9729613 c -0.019377,0.019372 -0.038767,0.038731 -0.058172,0.058075 -0.026343,0.026263 -0.052636,0.052575 -0.078917,0.0789 -0.014627,0.014612 -0.029254,0.029224 -0.044324,0.044279 -0.036809,0.038672 -0.069766,0.078856 -0.1027988,0.1207489 -0.02082,0.019194 -0.042124,0.037881 -0.063934,0.055942 -0.049135,0.041883 -0.087819,0.085131 -0.1278675,0.1358592 -0.023128,0.019017 -0.046274,0.038015 -0.069678,0.056691 -0.041523,0.036777 -0.075806,0.079514 -0.1116967,0.1216864 -0.032153,0.035802 -0.068786,0.063308 -0.1063273,0.093341 -0.029081,0.031706 -0.057049,0.064227 -0.085037,0.0969 -0.033789,0.038975 -0.069854,0.074853 -0.1067643,0.110885 -0.023997,0.023953 -0.04797,0.047931 -0.071925,0.071925 -1.2642608,1.2642612 -2.5285216,2.5285212 -5.1820398,5.1817862 -0.035152,0.0354 -0.067909,0.07197 -0.1004844,0.109728 -0.044944,0.05108 -0.090594,0.09253 -0.1438509,0.134861 -0.018605,0.02072 -0.036891,0.04173 -0.054943,0.06293 -0.046759,0.05486 -0.09732,0.09878 -0.1528416,0.14485 -0.016314,0.01836 -0.032288,0.03702 -0.04795,0.05594 -0.030428,0.03675 -0.057649,0.06399 -0.094902,0.0949 -0.038962,0.0326 -0.068593,0.06223 -0.1011203,0.100491 -0.054016,0.06244 -0.110538,0.121427 -0.1689981,0.179687 -0.01028,0.01031 -0.02056,0.02062 -0.031151,0.03124 -0.033523,0.03359 -0.067104,0.06713 -0.10068904,0.100659 -0.023455,0.02347 -0.046909,0.04693 -0.070359,0.07041 -0.048902,0.04892 -0.097832,0.09782 -0.1467829,0.146698 -0.062887,0.0628 -0.1257017,0.125663 -0.1884954,0.188552 -0.048289,0.04835 -0.096617,0.09666 -0.1449557,0.144954 -0.023197,0.02319 -0.046381,0.04638 -0.069554,0.06959 -0.032214,0.03225 -0.064479,0.06446 -0.096758,0.09665 -0.00963,0.0097 -0.019262,0.01933 -0.029185,0.02928 -0.065865,0.06553 -0.065865,0.06553 -0.083675,0.06553 -5.481e-4,-0.818856 -0.00106,-1.637713 -0.00135,-2.45657 -4.4e-6,-0.01215 -8.8e-6,-0.0243 -1.34e-5,-0.03682 -9.57e-5,-0.264184 -1.842e-4,-0.528369 -2.654e-4,-0.792553 -3.99e-5,-0.129587 -8.13e-5,-0.259174 -1.236e-4,-0.388761 -4.2e-6,-0.01289 -8.4e-6,-0.02579 -1.27e-5,-0.03907 -1.358e-4,-0.416702 -3.756e-4,-0.833404 -6.703e-4,-1.250105 -3.027e-4,-0.428806 -4.986e-4,-0.857612 -5.632e-4,-1.2864183 -9.2e-6,-0.060795 -1.96e-5,-0.1215903 -3.07e-5,-0.1823854 -2.2e-6,-0.011963 -4.4e-6,-0.023927 -6.6e-6,-0.036253 -3.75e-5,-0.1913017 -1.851e-4,-0.3826032 -3.756e-4,-0.5739049 -1.899e-4,-0.1930955 -2.597e-4,-0.3861907 -2.132e-4,-0.5792863 2.19e-5,-0.1043092 -8.7e-6,-0.2086178 -1.823e-4,-0.3129268 -5.7e-4,-0.3616589 -0.0011,-0.7229882 0.017711,-1.0842503 6.003e-4,-0.011897 0.0012,-0.023795 0.00182,-0.036053 0.019664,-0.3754671 0.084969,-0.7456488 0.176082,-1.1100993 0.00406,-0.017225 0.00812,-0.034449 0.0123,-0.052196 0.011167,-0.046756 0.023215,-0.09317 0.035651,-0.1396053 0.00289,-0.010894 0.00578,-0.021788 0.00876,-0.033013 0.048998,-0.1830241 0.1058628,-0.3631106 0.1670612,-0.5423909 0.00644,-0.019047 0.01288,-0.038094 0.019515,-0.057717 0.03838,-0.1108576 0.082498,-0.2165749 0.1328662,-0.32249 0.023238,-0.050909 0.043298,-0.1021607 0.062771,-0.1546131 0.041861,-0.1111066 0.092897,-0.2164196 0.1464732,-0.3222909 0.00488,-0.00969 0.00976,-0.019378 0.014784,-0.02936 C 1.0871706,3.8024525 1.3259406,3.417576 1.6045647,3.0591518 1.6248087,3.0329728 1.6448517,3.0066538 1.6648307,2.9802728 1.8055124,2.7948212 1.95614,2.6195991 2.1145286,2.4491047 c 0.022812,-0.024746 0.045348,-0.049719 0.067828,-0.074766 0.07226,-0.080295 0.1448479,-0.1571898 0.2277639,-0.2267649 0.033064,-0.028632 0.06356,-0.058966 0.094215,-0.090156 0.061306,-0.062018 0.1254476,-0.1192819 0.1918012,-0.1758178 0.014752,-0.012795 0.029504,-0.02559 0.044704,-0.038772 0.2478815,-0.2137997 0.5114461,-0.4155861 0.7895839,-0.5885461 0.042408,-0.026506 0.084441,-0.053528 0.1264666,-0.080635 0.091315,-0.058148 0.1845808,-0.1121516 0.2789608,-0.1651414 0.015401,-0.008736 0.030802,-0.0174718 0.04667,-0.0264725 0.097277,-0.0548374 0.1957832,-0.10606745 0.2959744,-0.15533898 0.020041,-0.0101586 0.040064,-0.0203528 0.060063,-0.0305933 0.084113,-0.0427397 0.1668283,-0.0846542 0.256172,-0.11544283 0.039384,-0.015351 0.077034,-0.033583 0.1150253,-0.052071 0.1099818,-0.053324 0.2202362,-0.096125 0.3366588,-0.1332603 0.07354,-0.023494 0.1456269,-0.049083 0.2175636,-0.077092 0.2676599,-0.1035345 0.5485389,-0.1653362 0.8276381,-0.2298789 0.014563,-0.00338 0.029126,-0.00676 0.04413,-0.010247 0.020156,-0.00454 0.020156,-0.00454 0.040719,-0.00917 0.01165,-0.00264 0.0233,-0.00527 0.035303,-0.00799 0.032689,-0.00556 0.032689,-0.00556 0.096622,-0.00556 0,-0.010549 0,-0.021098 0,-0.031967 0.078425,-0.011159 0.1568591,-0.022244 0.235303,-0.033266 0.0266,-0.00375 0.053198,-0.00751 0.079792,-0.011301 0.038562,-0.00549 0.077134,-0.010903 0.1157082,-0.016307 0.011596,-0.00167 0.023193,-0.00333 0.03514,-0.00505 0.1790263,-0.024877 0.3568719,-0.032743 0.5375161,-0.033787 z"
     fill="#f3807a"
     id="path4"
     style="stroke-width:0.0159834" />
  <path
     d="m 15.195172,12.063037 c 0.0053,0 0.01055,0 0.01598,0 0.0011,0.855539 0.0021,1.711078 0.0027,2.566617 1.3e-5,0.01902 1.3e-5,0.01902 2.6e-5,0.03842 1.92e-4,0.275575 3.69e-4,0.551151 5.31e-4,0.826727 8e-5,0.135157 1.63e-4,0.270314 2.48e-4,0.405472 8e-6,0.01345 1.6e-5,0.0269 2.5e-5,0.04076 2.72e-4,0.435321 7.52e-4,0.870642 0.0013,1.305963 6.05e-4,0.447638 9.97e-4,0.895275 0.0011,1.342914 1.8e-5,0.06334 3.9e-5,0.126675 6.1e-5,0.190013 7e-6,0.0187 7e-6,0.0187 1.3e-5,0.03777 7.6e-5,0.200025 3.72e-4,0.40005 7.52e-4,0.600075 3.78e-4,0.201471 5.19e-4,0.402942 4.26e-4,0.604413 -4.4e-5,0.109009 2e-5,0.218014 3.65e-4,0.327022 3.14e-4,0.100048 3.25e-4,0.200092 1.08e-4,0.30014 -2.7e-5,0.03595 5.2e-5,0.07191 2.55e-4,0.107859 0.0013,0.246133 -0.02413,0.478647 -0.07192,0.720081 -0.0023,0.01201 -0.0047,0.02401 -0.0071,0.03638 -0.104692,0.531221 -0.315399,1.071748 -0.63222,1.51401 -0.0084,0.01188 -0.01686,0.02376 -0.02554,0.036 -0.10681,0.149855 -0.215393,0.293878 -0.342075,0.427518 -0.02302,0.02594 -0.04599,0.05191 -0.06893,0.07792 -0.123036,0.136587 -0.252747,0.268488 -0.394591,0.3856 -0.008,0.0067 -0.01591,0.01333 -0.02411,0.02019 -0.780115,0.651115 -0.780115,0.651115 -1.094732,0.651115 0,0.01055 0,0.0211 0,0.03197 -0.0096,0.0028 -0.01927,0.0056 -0.0292,0.0085 -0.08496,0.0251 -0.16895,0.05213 -0.252695,0.081 -0.144929,0.04986 -0.286574,0.09006 -0.437356,0.11826 -0.01078,0.0028 -0.02155,0.0056 -0.03265,0.0086 -0.0383,0.0091 -0.076,0.01281 -0.115193,0.01642 -0.01426,0.0013 -0.02852,0.0027 -0.04321,0.0041 -0.0108,9.69e-4 -0.02159,0.0019 -0.03272,0.0029 0,0.01055 0,0.0211 0,0.03197 -0.01731,-4.95e-4 -0.01731,-4.95e-4 -0.03496,-9.99e-4 -0.04397,-3.44e-4 -0.04397,-3.44e-4 -0.08235,0.0086 -0.04298,0.0085 -0.08477,0.01292 -0.128429,0.01642 -0.04667,0.0038 -0.09214,0.0084 -0.138337,0.01615 -0.07662,0.01101 -0.152952,0.0099 -0.230215,0.0096 -0.02458,3e-6 -0.02458,3e-6 -0.04965,7e-6 -0.05388,-1.1e-5 -0.107754,-1.36e-4 -0.161632,-2.61e-4 -0.03747,-3e-5 -0.07493,-5.3e-5 -0.112401,-6.9e-5 -0.0984,-6e-5 -0.196809,-2.17e-4 -0.295213,-3.94e-4 -0.100498,-1.64e-4 -0.200996,-2.37e-4 -0.301494,-3.17e-4 -0.1970359,-1.72e-4 -0.3940712,-4.44e-4 -0.5911064,-7.81e-4 2.21e-5,0.02276 2.21e-5,0.02276 4.46e-5,0.04597 0.00307,3.195828 0.00307,3.195828 -0.00467,4.348045 -3.713e-4,0.06003 -6.546e-4,0.120054 -9.114e-4,0.180081 -4.063e-4,0.09255 -0.00104,0.185098 -0.00187,0.277646 -2.604e-4,0.0326 -4.489e-4,0.0652 -5.516e-4,0.0978 -0.00198,0.560185 -0.1328872,1.080584 -0.5354828,1.491774 -0.032525,0.02985 -0.06556,0.05886 -0.099237,0.0874 -0.054353,0.04648 -0.1008559,0.09286 -0.1405145,0.15235 -0.013846,0.003 -0.013846,0.003 -0.027971,0.006 -0.041126,0.0087 -0.041126,0.0087 -0.082914,0.04995 -0.048335,0.03946 -0.069454,0.04745 -0.1288664,0.05594 -0.00527,0.01055 -0.010549,0.0211 -0.015983,0.03197 -0.037141,0.01701 -0.073805,0.03236 -0.111884,0.04695 -0.010969,0.0043 -0.021938,0.0085 -0.033239,0.01294 -0.078811,0.03046 -0.1573943,0.06009 -0.2384794,0.08396 -0.013683,0.0041 -0.027367,0.0082 -0.041465,0.01236 -0.1455528,0.03859 -0.2841713,0.04246 -0.4335896,0.04096 -0.040572,-3.8e-4 -0.081128,-3.28e-4 -0.121702,-2.22e-4 -0.026264,-9e-5 -0.052529,-2.03e-4 -0.078793,-3.44e-4 -0.011891,1.5e-5 -0.023782,2.9e-5 -0.036034,4.4e-5 -0.085857,-0.0011 -0.1643086,-0.01594 -0.2474223,-0.03682 -0.016998,-0.0038 -0.033996,-0.0075 -0.051509,-0.01136 -0.085341,-0.01996 -0.1602582,-0.04271 -0.2370667,-0.08498 -0.045902,-0.02295 -0.09404,-0.03654 -0.143289,-0.05057 -0.035944,-0.01468 -0.053542,-0.03254 -0.079605,-0.06087 -0.039407,-0.02593 -0.075305,-0.04634 -0.1198757,-0.06194 -0.052171,-0.02348 -0.080326,-0.05651 -0.1198758,-0.0979 -0.03131,-0.02787 -0.063042,-0.05518 -0.094902,-0.08242 -0.071087,-0.06355 -0.133087,-0.131503 -0.1908022,-0.207285 -0.00689,-0.009 -0.013786,-0.01801 -0.020888,-0.02728 -0.062739,-0.08298 -0.1191179,-0.169384 -0.1729106,-0.25842 -0.012609,-0.01966 -0.012609,-0.01966 -0.025474,-0.03971 -0.029876,-0.05344 -0.04308,-0.107428 -0.058502,-0.166327 -0.00858,-0.03667 -0.00858,-0.03667 -0.043892,-0.0497 -0.00527,-0.01055 -0.010549,-0.0211 -0.015983,-0.03197 0.00527,-0.01582 0.010549,-0.03165 0.015983,-0.04795 -0.010549,-0.0053 -0.021098,-0.01055 -0.031967,-0.01598 -0.1002162,-0.31969 -0.084247,-0.668548 -0.082276,-0.999167 3.394e-4,-0.06313 4.849e-4,-0.126267 6.554e-4,-0.1894 3.205e-4,-0.109033 7.601e-4,-0.218065 0.00128,-0.327097 7.57e-4,-0.157636 0.00133,-0.315272 0.00186,-0.472909 8.639e-4,-0.255838 0.00187,-0.511675 0.00298,-0.767512 0.00107,-0.248325 0.00207,-0.496651 0.00298,-0.744977 5.61e-5,-0.01534 1.123e-4,-0.03068 1.701e-4,-0.04649 2.813e-4,-0.07697 5.611e-4,-0.153944 8.404e-4,-0.230915 0.00231,-0.637213 0.00486,-1.274425 0.00757,-1.911637 -0.019114,7.1e-5 -0.038228,1.42e-4 -0.057921,2.15e-4 -0.1814858,6.53e-4 -0.3629714,0.0011 -0.5444581,0.0014 -0.09327,1.66e-4 -0.1865384,3.9e-4 -0.2798076,7.56e-4 -0.090267,3.51e-4 -0.180533,5.39e-4 -0.2708007,6.21e-4 -0.034176,5.8e-5 -0.068351,1.72e-4 -0.1025268,3.47e-4 -0.2557103,0.0013 -0.5053991,-0.01395 -0.7583978,-0.05133 0,-0.01055 0,-0.0211 0,-0.03197 -0.00987,-9.68e-4 -0.019738,-0.0019 -0.029907,-0.0029 -0.028288,-0.0028 -0.056571,-0.0057 -0.08485,-0.0086 -0.029031,-0.0029 -0.058085,-0.0056 -0.08716,-0.008 -0.03404,-0.0031 -0.067935,-0.0077 -0.1017695,-0.01249 -0.00528,-0.01055 -0.010549,-0.0211 -0.015983,-0.03197 -0.031581,-0.01175 -0.063684,-0.02209 -0.095901,-0.03197 -0.024405,-0.0084 -0.048773,-0.01681 -0.073112,-0.02535 -0.013233,-0.0046 -0.026465,-0.0092 -0.040099,-0.01401 -0.013737,-0.0048 -0.027475,-0.0096 -0.041629,-0.01458 -0.014129,-0.0049 -0.028258,-0.0099 -0.042815,-0.01499 -0.099541,-0.03491 -0.1988752,-0.07034 -0.2978319,-0.106885 0,-0.01582 0,-0.03165 0,-0.04795 0.010549,0 0.021098,0 0.031967,0 0.00345,-0.0086 0.0069,-0.01729 0.010453,-0.02619 0.029078,-0.05101 0.06861,-0.08915 0.1100056,-0.130121 0.00918,-0.0092 0.018357,-0.01842 0.027814,-0.02791 0.030956,-0.03102 0.062026,-0.06193 0.093095,-0.09285 0.02237,-0.02237 0.044734,-0.04475 0.067091,-0.06714 0.0616,-0.06164 0.1233003,-0.123182 0.1850163,-0.184707 0.066489,-0.06632 0.1328854,-0.132729 0.1992928,-0.199129 0.115143,-0.115105 0.2303435,-0.230152 0.3455821,-0.345161 0.1209541,-0.120715 0.2418726,-0.241465 0.3627432,-0.362263 0.00752,-0.0075 0.015031,-0.01502 0.022774,-0.02276 0.038169,-0.03815 0.076338,-0.07629 0.1145064,-0.114443 0.2704965,-0.270351 0.541061,-0.540634 0.8116711,-0.810872 0.016368,-0.01635 0.032737,-0.03269 0.049105,-0.04904 0.00811,-0.0081 0.01622,-0.0162 0.024576,-0.02454 0.041027,-0.04097 0.082054,-0.08194 0.1230812,-0.122912 0.012202,-0.01219 0.012202,-0.01219 0.024651,-0.02462 0.1888092,-0.188551 0.3775982,-0.377122 0.5663798,-0.565701 0.00808,-0.0081 0.016167,-0.01615 0.024495,-0.02447 0.184606,-0.184407 0.3692026,-0.368823 0.5537803,-0.553259 0.00776,-0.0078 0.015523,-0.01551 0.02352,-0.0235 0.069829,-0.06978 0.1396585,-0.139551 0.2094854,-0.209329 0.181533,-0.181406 0.3630967,-0.362781 0.5447154,-0.544101 0.1139684,-0.113783 0.2279097,-0.227594 0.3418297,-0.341426 0.065738,-0.06569 0.1314899,-0.131356 0.197277,-0.196992 0.060246,-0.06011 0.120455,-0.120252 0.180635,-0.180426 0.021757,-0.02174 0.043527,-0.04347 0.065313,-0.06518 0.1438224,-0.142705 0.1438224,-0.142705 0.2786709,-0.293812 0.029801,-0.03363 0.065537,-0.05922 0.1005754,-0.08725 0.015314,-0.01726 0.03031,-0.0348 0.045117,-0.05249 0.088184,-0.101739 0.1846633,-0.195423 0.2799255,-0.290458 0.021799,-0.02181 0.043595,-0.04362 0.065388,-0.06543 0.059695,-0.05973 0.1194397,-0.119411 0.1791927,-0.179084 0.064508,-0.06444 0.1289689,-0.128923 0.1934359,-0.193403 0.1116518,-0.11166 0.2233328,-0.223291 0.3350337,-0.334902 0.161587,-0.161456 0.3231297,-0.322958 0.4846615,-0.48447 0.262203,-0.262168 0.524442,-0.5243 0.786704,-0.786411 0.254536,-0.254389 0.509055,-0.508795 0.763552,-0.763224 0.01177,-0.01176 0.01177,-0.01176 0.02377,-0.02376 0.07878,-0.07875 0.15755,-0.157508 0.236324,-0.236262 0.615112,-0.614957 1.23027,-1.229867 1.84547,-1.844735 0.0095,-0.0095 0.019,-0.01899 0.02879,-0.02877 0.01736,-0.01735 0.03472,-0.0347 0.05207,-0.05205 0.02233,-0.02232 0.04466,-0.04464 0.06699,-0.06695 0.01435,-0.01427 0.02871,-0.02854 0.04349,-0.04324 0.03705,-0.03732 0.07172,-0.07603 0.106351,-0.115599 0.05031,-0.0564 0.101431,-0.106239 0.159897,-0.153903 0.03741,-0.03308 0.06779,-0.07108 0.09952,-0.109511 0.02229,-0.02529 0.02229,-0.02529 0.06125,-0.05625 0.03767,-0.03032 0.06566,-0.06027 0.0969,-0.0969 0.04197,-0.0492 0.08533,-0.08744 0.13586,-0.127867 0.01709,-0.01901 0.03386,-0.03833 0.0504,-0.05783 0.06041,-0.06976 0.124549,-0.134878 0.190166,-0.199719 0.01774,-0.01765 0.01774,-0.01765 0.03584,-0.03566 0.03736,-0.03716 0.07477,-0.07428 0.112192,-0.111376 0.0496,-0.04917 0.09914,-0.0984 0.148658,-0.147659 0.01137,-0.01124 0.02274,-0.02248 0.03446,-0.03406 0.01052,-0.01046 0.02103,-0.02093 0.03187,-0.03171 0.0092,-0.0092 0.01849,-0.01832 0.02802,-0.02776 0.02704,-0.02774 0.02704,-0.02774 0.05569,-0.07349 z"
     fill="#35cfb9"
     id="path6"
     style="stroke-width:0.0159834" />
  <path
     d="m 4.3894781,24.94175 c 0.011416,-3.7e-5 0.022833,-7.4e-5 0.034595,-1.12e-4 0.038549,-8.5e-5 0.077093,5.9e-5 0.1156409,2.01e-4 0.027797,-1.4e-5 0.055595,-4.2e-5 0.083392,-8.3e-5 0.076614,-7.1e-5 0.1532259,5.7e-5 0.2298394,2.17e-4 0.082532,1.38e-4 0.1650638,9.1e-5 0.2475958,6.7e-5 0.1430684,-1.7e-5 0.2861364,8.4e-5 0.4292046,2.63e-4 0.2068544,2.6e-4 0.4137086,3.43e-4 0.6205631,3.84e-4 0.3355822,7e-5 0.6711641,2.82e-4 1.0067461,5.85e-4 0.3260474,2.93e-4 0.6520948,5.19e-4 0.9781423,6.55e-4 0.020087,9e-6 0.040174,1.7e-5 0.06087,2.6e-5 0.1007673,4.1e-5 0.2015345,8.2e-5 0.3023018,1.22e-4 0.8363816,3.31e-4 1.6727629,8.94e-4 2.5091439,0.0016 -0.04224,0.04224 -0.07282,0.03574 -0.130277,0.03594 -0.02068,-1.72e-4 -0.02068,-1.72e-4 -0.04177,-3.48e-4 -0.0145,5e-6 -0.02901,9e-6 -0.04395,1.4e-5 -0.04809,-2.2e-5 -0.09617,-2.71e-4 -0.144255,-5.21e-4 -0.03328,-6e-5 -0.06656,-1.05e-4 -0.09984,-1.37e-4 -0.08771,-1.22e-4 -0.175421,-4.37e-4 -0.263133,-7.9e-4 -0.08946,-3.27e-4 -0.178912,-4.73e-4 -0.268369,-6.34e-4 -0.1756101,-3.43e-4 -0.3512192,-8.89e-4 -0.5268286,-0.0016 2.21e-5,0.02276 2.21e-5,0.02276 4.46e-5,0.04597 0.00307,3.195828 0.00307,3.195828 -0.00467,4.348045 -3.713e-4,0.06003 -6.546e-4,0.120054 -9.114e-4,0.180081 -4.063e-4,0.09255 -0.00104,0.185098 -0.00187,0.277646 -2.604e-4,0.0326 -4.489e-4,0.0652 -5.516e-4,0.0978 -0.00198,0.560185 -0.1328872,1.080584 -0.5354828,1.491774 -0.032525,0.02985 -0.06556,0.05886 -0.099237,0.0874 -0.054353,0.04648 -0.1008559,0.09286 -0.1405145,0.15235 -0.00923,0.002 -0.018461,0.004 -0.027971,0.006 -0.041126,0.0087 -0.041126,0.0087 -0.082914,0.04995 -0.048335,0.03946 -0.069454,0.04745 -0.1288664,0.05594 -0.00527,0.01055 -0.010549,0.0211 -0.015983,0.03197 -0.037141,0.01701 -0.073805,0.03236 -0.111884,0.04695 -0.010969,0.0043 -0.021938,0.0085 -0.033239,0.01294 -0.078811,0.03046 -0.1573943,0.06009 -0.2384794,0.08396 -0.020525,0.0061 -0.020525,0.0061 -0.041465,0.01236 -0.1455528,0.03859 -0.2841713,0.04246 -0.4335896,0.04096 -0.040572,-3.8e-4 -0.081128,-3.28e-4 -0.121702,-2.22e-4 -0.026264,-9e-5 -0.052529,-2.03e-4 -0.078793,-3.44e-4 -0.011891,1.5e-5 -0.023782,2.9e-5 -0.036034,4.4e-5 -0.085857,-0.0011 -0.1643086,-0.01594 -0.2474223,-0.03682 -0.016998,-0.0038 -0.033996,-0.0075 -0.051509,-0.01136 -0.085341,-0.01996 -0.1602582,-0.04271 -0.2370667,-0.08498 -0.045902,-0.02295 -0.09404,-0.03654 -0.143289,-0.05057 -0.035944,-0.01468 -0.053542,-0.03254 -0.079605,-0.06087 -0.039407,-0.02593 -0.075305,-0.04634 -0.1198757,-0.06194 -0.052171,-0.02348 -0.080326,-0.05651 -0.1198758,-0.0979 -0.03131,-0.02787 -0.063042,-0.05518 -0.094902,-0.08242 -0.071087,-0.06355 -0.133087,-0.131503 -0.1908022,-0.207285 -0.00689,-0.009 -0.013786,-0.01801 -0.020888,-0.02728 -0.062739,-0.08298 -0.1191179,-0.169384 -0.1729106,-0.25842 -0.00841,-0.0131 -0.016813,-0.02621 -0.025474,-0.03971 -0.029876,-0.05344 -0.04308,-0.107428 -0.058502,-0.166327 -0.00858,-0.03667 -0.00858,-0.03667 -0.043892,-0.0497 -0.00527,-0.01055 -0.010549,-0.0211 -0.015983,-0.03197 0.00527,-0.01582 0.010549,-0.03165 0.015983,-0.04795 -0.010549,-0.0053 -0.021098,-0.01055 -0.031967,-0.01598 -0.1002162,-0.31969 -0.084247,-0.668548 -0.082276,-0.999167 3.394e-4,-0.06313 4.849e-4,-0.126267 6.554e-4,-0.1894 3.205e-4,-0.109033 7.601e-4,-0.218065 0.00128,-0.327097 7.57e-4,-0.157636 0.00133,-0.315272 0.00186,-0.472909 8.639e-4,-0.255838 0.00187,-0.511675 0.00298,-0.767512 0.00107,-0.248325 0.00207,-0.496651 0.00298,-0.744977 5.61e-5,-0.01534 1.123e-4,-0.03068 1.701e-4,-0.04649 2.813e-4,-0.07697 5.611e-4,-0.153944 8.404e-4,-0.230915 0.00231,-0.637213 0.00489,-1.274425 0.00757,-1.911637 -0.4694334,0 -0.9388667,0 -1.4225254,0 0.059167,-0.03945 0.088285,-0.03594 0.1589402,-0.0359 z"
     fill="#f6d085"
     id="path8"
     style="stroke-width:0.0159834" />
  <path
     d="m 4.3894781,24.94175 c 0.011416,-3.7e-5 0.022833,-7.4e-5 0.034595,-1.12e-4 0.038549,-8.5e-5 0.077093,5.9e-5 0.1156409,2.01e-4 0.027797,-1.4e-5 0.055595,-4.2e-5 0.083392,-8.3e-5 0.076614,-7.1e-5 0.1532259,5.7e-5 0.2298394,2.17e-4 0.082532,1.38e-4 0.1650638,9.1e-5 0.2475958,6.7e-5 0.1430684,-1.7e-5 0.2861364,8.4e-5 0.4292046,2.63e-4 0.2068544,2.6e-4 0.4137086,3.43e-4 0.6205631,3.84e-4 0.3355822,7e-5 0.6711641,2.82e-4 1.0067461,5.85e-4 0.3260474,2.93e-4 0.6520948,5.19e-4 0.9781423,6.55e-4 0.020087,9e-6 0.040174,1.7e-5 0.06087,2.6e-5 0.1007673,4.1e-5 0.2015345,8.2e-5 0.3023018,1.22e-4 0.8363816,3.31e-4 1.6727629,8.94e-4 2.5091439,0.0016 -0.01055,0.01055 -0.0211,0.0211 -0.03197,0.03197 -0.490531,0 -0.9810627,0 -1.4864588,0 0,1.086554 0,2.173107 0,3.292587 -0.063753,-0.03825 -0.1029295,-0.06697 -0.1539167,-0.117998 -0.014384,-0.01432 -0.028769,-0.02863 -0.043589,-0.04339 -0.015738,-0.01583 -0.031474,-0.03165 -0.047209,-0.04748 -0.016725,-0.01671 -0.033456,-0.03341 -0.050194,-0.0501 -0.045348,-0.04527 -0.090596,-0.09064 -0.1358237,-0.136031 -0.047416,-0.04756 -0.094916,-0.09503 -0.1424053,-0.142511 C 8.8361921,27.652956 8.7564977,27.573123 8.676843,27.493249 8.5848787,27.401034 8.4928314,27.308902 8.4007357,27.216818 8.3025464,27.11864 8.2044181,27.0204 8.1063075,26.922143 c -0.028202,-0.02824 -0.056415,-0.05646 -0.084631,-0.08468 -0.044433,-0.04445 -0.088825,-0.08894 -0.1331862,-0.133461 -0.016242,-0.01629 -0.032497,-0.03256 -0.048767,-0.04882 -0.077191,-0.07716 -0.1523049,-0.153927 -0.2206978,-0.239017 -0.018117,-0.01658 -0.036693,-0.0327 -0.055942,-0.04795 -0.052725,-0.04371 -0.092824,-0.09062 -0.1358591,-0.143851 -0.026434,-0.02684 -0.053115,-0.05344 -0.079917,-0.07992 -0.017507,-0.01752 -0.034998,-0.03504 -0.052478,-0.05259 -0.00961,-0.0096 -0.019224,-0.01927 -0.029128,-0.0292 -0.010274,-0.0103 -0.020548,-0.0206 -0.031133,-0.03121 C 7.1225842,25.919203 7.0105596,25.806999 6.8985118,25.694817 6.8307714,25.626993 6.7630462,25.559154 6.695354,25.491282 6.6297997,25.425554 6.5642068,25.359865 6.4985866,25.294204 c -0.025014,-0.02504 -0.050015,-0.0501 -0.075001,-0.07518 -0.034819,-0.03494 -0.069687,-0.06982 -0.1045678,-0.104692 -0.010371,-0.01043 -0.020742,-0.02086 -0.031427,-0.0316 -0.00948,-0.0095 -0.018954,-0.01891 -0.028718,-0.02865 -0.00824,-0.0083 -0.016471,-0.0165 -0.024955,-0.025 -0.021526,-0.02131 -0.021526,-0.02131 -0.0534,-0.03545 0,-0.01055 0,-0.0211 0,-0.03197 -0.018121,7.18e-4 -0.018121,7.18e-4 -0.036608,0.0015 -0.3955466,0.01511 -0.790697,0.01652 -1.1864911,0.01563 -0.082323,-1.67e-4 -0.1646469,-2.38e-4 -0.2469705,-3.17e-4 -0.1599698,-1.69e-4 -0.3199393,-4.4e-4 -0.4799088,-7.81e-4 0.059167,-0.03945 0.088285,-0.03594 0.1589402,-0.0359 z"
     fill="#d6ae64"
     id="path10"
     style="stroke-width:0.0159834" />
  <path
     d="m 6.308384,0.13939734 c -0.05958,0.034806 -0.1235054,0.047784 -0.1901154,0.062623 -0.025592,0.00587 -0.051182,0.011743 -0.076772,0.017622 -0.013358,0.00304 -0.026716,0.00608 -0.040478,0.00922 -0.4493795,0.1017757 -0.4493795,0.1017757 -0.8809648,0.2606108 -0.045815,0.01896 -0.091538,0.03222 -0.1392931,0.045515 -0.1210967,0.0356 -0.2312686,0.091103 -0.344393,0.146161 -0.051659,0.025078 -0.1034135,0.0480992 -0.1570871,0.0686163 C 4.3877786,0.78501874 4.3015541,0.82955374 4.214555,0.874636 4.202803,0.880709 4.191051,0.8867818 4.178943,0.8930388 4.0337968,0.9681864 3.8897447,1.043763 3.751035,1.1303709 c -0.015968,0.00962 -0.031936,0.019244 -0.048387,0.029157 -0.116567,0.07055 -0.2294643,0.1451164 -0.3406625,0.2238461 -0.026681,0.018829 -0.053498,0.03745 -0.080339,0.056051 -0.137582,0.096013 -0.26774,0.1998064 -0.3969869,0.3067055 -0.024786,0.020364 -0.049849,0.040391 -0.074961,0.060352 -0.1130189,0.089974 -0.2174996,0.1879939 -0.3222285,0.2873272 -0.047277,0.044814 -0.095164,0.088834 -0.1435699,0.1324213 -0.06836,0.061631 -0.1326127,0.1237027 -0.1917076,0.1942401 -0.034532,0.040082 -0.0705,0.078524 -0.1067487,0.1170505 -0.091756,0.097565 -0.1788835,0.1966541 -0.2603707,0.3030764 -0.012609,0.016256 -0.025219,0.032513 -0.03821,0.049261 -0.034258,0.044213 -0.068255,0.088618 -0.1021676,0.1330964 -0.017796,0.023257 -0.035756,0.046388 -0.053733,0.069506 C 1.2884469,3.486461 1.049562,3.9171158 0.82606756,4.3590236 c -0.00664,0.012935 -0.013274,0.02587 -0.020112,0.039198 -0.02868,0.056246 -0.053797,0.1116991 -0.073791,0.1715838 -0.022189,0.063566 -0.047964,0.1234243 -0.07742,0.1839344 -0.056992,0.1224703 -0.1015356,0.2482994 -0.1449436,0.3761218 -0.013302,0.039057 -0.026884,0.078009 -0.040489,0.1169608 -0.051986,0.1508803 -0.093406,0.3009042 -0.1252062,0.4572955 -0.011962,0.054348 -0.027467,0.1048052 -0.045492,0.1573486 -0.094938,0.3751788 -0.1569965,0.7565089 -0.1773392,1.1428724 -6.81e-4,0.012786 -0.00136,0.025573 -0.00206,0.038747 -0.019014,0.3690158 -0.016725,0.7383387 -0.016109,1.1077327 1.257e-4,0.094928 9.7e-5,0.1898567 7.41e-5,0.2847852 -4.16e-5,0.193632 6.31e-5,0.3872637 2.563e-4,0.5808957 1.902e-4,0.1912367 3.124e-4,0.3824732 3.469e-4,0.5737101 2.2e-6,0.011968 4.4e-6,0.023936 6.6e-6,0.036267 1.09e-5,0.0608 2.05e-5,0.1216008 2.97e-5,0.1824012 6.68e-5,0.4287032 2.813e-4,0.8574062 5.851e-4,1.2861092 2.944e-4,0.416027 5.204e-4,0.832054 6.555e-4,1.248081 4.2e-6,0.01286 8.4e-6,0.02573 1.28e-5,0.03898 4.21e-5,0.129197 8.29e-5,0.258395 1.227e-4,0.387592 8.1e-5,0.263102 1.712e-4,0.526205 2.669e-4,0.789307 4.4e-6,0.01209 8.8e-6,0.02419 1.33e-5,0.03664 2.933e-4,0.805118 8.004e-4,1.610237 0.00134,2.415355 0.1463538,-0.145983 0.2926639,-0.292009 0.4389191,-0.438091 0.067919,-0.06784 0.1358528,-0.135657 0.2038209,-0.203443 0.065636,-0.06546 0.1312329,-0.130964 0.1968028,-0.196492 0.024978,-0.02495 0.04997,-0.04988 0.074977,-0.0748 0.035119,-0.035 0.070187,-0.07005 0.1052439,-0.105119 0.010267,-0.01021 0.020533,-0.02042 0.031111,-0.03094 0.055611,-0.05574 0.1081508,-0.112778 0.1582342,-0.173554 0.035002,-0.0393 0.077146,-0.07054 0.1175164,-0.104185 0.015981,-0.01803 0.031621,-0.03636 0.046951,-0.05494 0.040755,-0.04929 0.08513,-0.08877 0.1343607,-0.129366 0.040204,-0.03565 0.072126,-0.07808 0.1063897,-0.119376 0.015494,-0.01286 0.030988,-0.02571 0.046951,-0.03896 0.055295,-0.04627 0.099525,-0.09707 0.1448499,-0.152841 0.010549,0.0053 0.021098,0.01055 0.031967,0.01598 -0.027565,0.0307 -0.055214,0.06132 -0.082914,0.09191 -0.00772,0.0086 -0.015432,0.01722 -0.023382,0.0261 -0.046663,0.05136 -0.09484,0.09463 -0.1494388,0.137732 -0.019194,0.02082 -0.037881,0.04212 -0.055942,0.06393 -0.030968,0.03637 -0.057988,0.06552 -0.095901,0.0949 -0.039737,0.03278 -0.065218,0.06476 -0.095901,0.105891 -0.041673,0.05532 -0.07577,0.08432 -0.1358592,0.118876 -0.014635,0.01815 -0.028934,0.03657 -0.043048,0.05513 -0.052851,0.06155 -0.1123405,0.104629 -0.180215,0.147992 -0.41102275,0.264641 -0.89209575,0.634552 -1.00978675,1.134353 -0.0722439958,0.335985 -0.0731639958,0.685825 -0.0724089958,1.027944 2.04e-5,0.01307 4.09e-5,0.02613 6.19e-5,0.0396 8.2499579e-4,0.339686 0.0124249958,0.678776 0.0274519958,1.018092 0.00861,0.19663 0.014391,0.3932 0.018278,0.589978 2.765e-4,0.01396 5.53e-4,0.02792 8.379e-4,0.0423 0.00137,0.0701 0.0027,0.14021 0.00401,0.210316 0.00822,0.43691 0.01999,0.8736 0.036995,1.310258 4.207e-4,0.01089 8.413e-4,0.02179 0.00127,0.03301 0.00276,0.07152 0.00563,0.143028 0.00855,0.214537 0.00104,0.02599 0.00104,0.02599 0.00211,0.0525 0.015744,0.370749 0.058203,0.730686 0.1705859,1.08536 0.012263,0.03905 0.02387,0.07824 0.035338,0.117534 0.052813,0.178135 0.1207987,0.345643 0.2007918,0.513218 0.0076,0.01609 0.0076,0.01609 0.015351,0.0325 0.1132024,0.238259 0.2406393,0.476191 0.4002179,0.686757 0.013166,0.01746 0.013166,0.01746 0.026597,0.03528 0.028023,0.03653 0.056539,0.07261 0.085287,0.108575 0.010838,0.01364 0.021675,0.02728 0.032841,0.04133 0.091067,0.113104 0.1870745,0.220873 0.2868277,0.326287 0.01399,0.01485 0.02798,0.02971 0.042394,0.04502 0.1016565,0.10494 0.2102812,0.194732 0.3265013,0.282843 0.036277,0.0281 0.071686,0.0572 0.1072365,0.08621 0.079463,0.06368 0.1620436,0.120005 0.2481178,0.17432 0.015,0.0095 0.029999,0.01901 0.045453,0.0288 0.1813015,0.113223 0.3695616,0.226086 0.5729061,0.293867 0.406139,-0.406139 0.812278,-0.812278 1.2307243,-1.230724 0.010549,0.0053 0.021098,0.01055 0.031967,0.01598 -0.014782,0.01475 -0.029565,0.02949 -0.044795,0.04469 -0.1390485,0.138725 -0.2780552,0.277492 -0.4170206,0.4163 -0.071451,0.07137 -0.1429172,0.14272 -0.214417,0.214039 -0.068952,0.06878 -0.1378647,0.137596 -0.2067506,0.20644 -0.026338,0.02631 -0.05269,0.0526 -0.079056,0.07888 -0.036819,0.0367 -0.073588,0.07346 -0.1103453,0.11022 -0.011002,0.01095 -0.022005,0.02189 -0.03334,0.03317 -0.014961,0.01499 -0.014961,0.01499 -0.030224,0.03029 -0.013061,0.01304 -0.013061,0.01304 -0.026386,0.02634 -0.022192,0.02229 -0.022192,0.02229 -0.036422,0.05437 -0.010549,0 -0.021098,0 -0.031967,0 0,0.01582 0,0.03165 0,0.04795 0.023766,0.0067 0.023766,0.0067 0.048013,0.01355 0.063856,0.01826 0.1273401,0.0376 0.1907398,0.05738 0.011178,0.0035 0.022355,0.007 0.033871,0.01056 0.075325,0.0237 0.1494143,0.04927 0.2228627,0.07834 C 3.1157605,24.81952 3.0127076,24.77108 2.9151475,24.72503 2.8708697,24.70545 2.8259284,24.68861 2.7804317,24.67209 2.6569651,24.62725 2.540268,24.57645 2.4244062,24.514125 c -0.01213,-0.0065 -0.024261,-0.01292 -0.036759,-0.01957 -0.2861283,-0.152704 -0.2861283,-0.152704 -0.4112768,-0.245464 -0.029914,-0.02154 -0.05995,-0.03923 -0.092404,-0.05663 -0.050947,-0.02997 -0.050947,-0.02997 -0.088346,-0.06749 -0.042442,-0.04232 -0.086044,-0.07604 -0.1344231,-0.111322 -0.1392218,-0.104207 -0.2633019,-0.22536 -0.3875983,-0.34664 -0.011525,-0.01125 -0.02305,-0.02249 -0.034925,-0.03407 -0.011283,-0.01113 -0.022566,-0.02226 -0.034191,-0.03373 -0.010131,-0.01 -0.020261,-0.01998 -0.030699,-0.03027 -0.028014,-0.02975 -0.051993,-0.0607 -0.076003,-0.09372 -0.015167,-0.01778 -0.030484,-0.03543 -0.045952,-0.05294 -0.033778,-0.0389 -0.064528,-0.07855 -0.093903,-0.120874 -0.030268,-0.05019 -0.030268,-0.05019 -0.06793,-0.06593 -0.015095,-0.02588 -0.030086,-0.05182 -0.044454,-0.07811 -0.029368,-0.05092 -0.063105,-0.09873 -0.09665,-0.146972 -0.01873,-0.03066 -0.01873,-0.03066 -0.01873,-0.06262 -0.010549,0 -0.021098,0 -0.031967,0 -0.1311374,-0.228276 -0.25517,-0.457899 -0.3516355,-0.703271 -0.00746,-0.01858 -0.014917,-0.03717 -0.022602,-0.05632 -0.057316,-0.14505 -0.057316,-0.14505 -0.057316,-0.199419 -0.010549,-0.0053 -0.021098,-0.01055 -0.031967,-0.01598 -0.011083,-0.03607 -0.019941,-0.0711 -0.027971,-0.107888 -0.00263,-0.01169 -0.00527,-0.02339 -0.00798,-0.03543 -0.00952,-0.04276 -0.018754,-0.08558 -0.027979,-0.128398 -0.00389,-0.01779 -0.00778,-0.03558 -0.011785,-0.05391 -0.012897,-0.05925 -0.025563,-0.118537 -0.038164,-0.177847 -0.00405,-0.01874 -0.00811,-0.03749 -0.012284,-0.0568 -0.048368,-0.231617 -0.070506,-0.459652 -0.069702,-0.69628 -3.83e-5,-0.02392 -9.06e-5,-0.04785 -1.553e-4,-0.07177 -1.365e-4,-0.06516 -7.72e-5,-0.130321 1.69e-5,-0.195483 6.71e-5,-0.07111 -5.19e-5,-0.142228 -1.463e-4,-0.213342 -1.397e-4,-0.124453 -1.612e-4,-0.248904 -1.039e-4,-0.373357 8.51e-5,-0.185078 -1.28e-5,-0.370155 -1.451e-4,-0.555233 -2.434e-4,-0.349853 -2.709e-4,-0.699706 -2.314e-4,-1.049559 2.93e-5,-0.270259 1.1e-6,-0.540517 -6.76e-5,-0.810776 -9.6e-6,-0.03886 -1.92e-5,-0.07772 -2.88e-5,-0.11658 -1.45e-5,-0.05856 -2.9e-5,-0.117125 -4.37e-5,-0.175688 -1.347e-4,-0.544393 -2.04e-4,-1.088786 -1.373e-4,-1.63318 2.5e-6,-0.02051 5e-6,-0.04103 7.6e-6,-0.06217 1.29e-5,-0.103974 2.64e-5,-0.207948 4.01e-5,-0.311922 2.8e-6,-0.02065 5.5e-6,-0.0413 8.3e-6,-0.06257 5.6e-6,-0.04176 1.11e-5,-0.08351 1.67e-5,-0.12527 8.56e-5,-0.649431 -4.1e-5,-1.298863 -3.361e-4,-1.948294 -3.315e-4,-0.730118 -5.026e-4,-1.460236 -4.384e-4,-2.190354 6.3e-6,-0.07792 1.21e-5,-0.155846 1.76e-5,-0.233768 1.4e-6,-0.01919 2.9e-6,-0.03837 4.4e-6,-0.05814 1.86e-5,-0.289094 -8.74e-5,-0.5781875 -2.572e-4,-0.8672811 -1.93e-4,-0.3290141 -2.171e-4,-0.6580277 -1.93e-5,-0.9870418 1.056e-4,-0.183894 8.06e-5,-0.367787 -1.373e-4,-0.5516809 -1.325e-4,-0.1231403 -8.77e-5,-0.2462797 9.55e-5,-0.3694199 9.93e-5,-0.069961 1.274e-4,-0.1399194 -6.17e-5,-0.2098801 -0.00108,-0.429145 0.0299,-0.8451913 0.1060661,-1.2684107 0.00356,-0.020168 0.00356,-0.020168 0.0072,-0.040744 0.039136,-0.2204259 0.088753,-0.4354144 0.1523626,-0.6502117 0.011249,-0.038795 0.021573,-0.077664 0.031428,-0.1168321 0.046569,-0.1831377 0.1137478,-0.3568416 0.1829978,-0.5325105 0.028326,-0.071878 0.054736,-0.1439328 0.079543,-0.2170874 0.045471,-0.1293935 0.1054504,-0.2516628 0.1658281,-0.3746117 0.00534,-0.01093 0.010688,-0.02186 0.016194,-0.033122 0.099768,-0.2035372 0.2001559,-0.4078346 0.32520195,-0.5972247 0.02591,-0.040468 0.049511,-0.081933 0.073174,-0.1237389 0.028369,-0.048616 0.059523,-0.095277 0.090906,-0.1419857 0.00696,-0.010377 0.013915,-0.020753 0.021084,-0.031444 0.1668223,-0.2475467 0.3402458,-0.4957619 0.5436434,-0.71472 0.033954,-0.037459 0.065331,-0.076212 0.096587,-0.1159424 C 2.02283,2.4661992 2.1205109,2.3560757 2.236355,2.2584748 c 0.031938,-0.02731 0.031938,-0.02731 0.068179,-0.073174 C 2.3442857,2.137599 2.3855889,2.1001699 2.4327139,2.060118 2.4727366,2.0251375 2.5112823,1.9889513 2.549862,1.9524015 2.6599567,1.848345 2.7744412,1.7532219 2.8947428,1.6612658 2.9312612,1.633098 2.9670092,1.6040043 3.0028104,1.5749334 3.1252556,1.4768972 3.2518055,1.3866266 3.3847895,1.3034648 c 0.050199,-0.031492 0.099808,-0.063818 0.14947,-0.09615 0.2040201,-0.1313461 0.4114969,-0.25574142 0.6263508,-0.36861788 0.013875,-0.007331 0.027751,-0.0146621 0.042046,-0.0222153 0.2305655,-0.11931638 0.4714052,-0.21926928 0.7131708,-0.31343678 0.012997,-0.00506 0.025995,-0.010128 0.039386,-0.015345 0.2204997,-0.085124 0.4437886,-0.1546725 0.6718768,-0.2164144 0.014582,-0.00397 0.029164,-0.00794 0.044188,-0.012028 0.4666485,-0.1259855 0.4666485,-0.1259855 0.6371061,-0.1198348 z"
     fill="#fc9338"
     id="path12"
     style="stroke-width:0.0159834" />
  <path
     d="m 13.373061,2.7127299 c 0,0.015824 0,0.031647 0,0.04795 -0.0264,0.021603 -0.05311,0.042832 -0.07992,0.063934 -0.018,0.020005 -0.03562,0.04035 -0.05295,0.060937 -0.03776,0.044361 -0.07601,0.082767 -0.120875,0.1198757 -0.06531,0.055136 -0.115671,0.1182266 -0.167202,0.186182 -0.03404,0.041418 -0.07229,0.07573 -0.112558,0.1110689 -0.100749,0.090098 -0.195989,0.1852216 -0.291461,0.280831 -0.01995,0.019924 -0.03991,0.039845 -0.05987,0.059762 -0.05446,0.054366 -0.108877,0.1087812 -0.163283,0.1632053 -0.05883,0.058832 -0.117702,0.1176173 -0.17657,0.1764093 -0.115163,0.1150312 -0.230283,0.2301063 -0.345384,0.3451992 -0.09357,0.093563 -0.187155,0.187114 -0.280747,0.2806558 -0.265559,0.2654179 -0.531084,0.5308692 -0.796566,0.7963635 -0.01429,0.014295 -0.02859,0.02859 -0.04332,0.043318 -0.01431,0.014312 -0.02862,0.028625 -0.04337,0.043371 C 10.406907,5.723881 10.174745,5.9558897 9.9425471,6.1878624 9.7039249,6.4262548 9.4653625,6.6647069 9.2268621,6.9032212 9.0930407,7.0370479 8.9591949,7.1708499 8.8252848,7.3045879 8.7113166,7.4184104 8.5974041,7.5322883 8.4835629,7.6462379 c -0.05805,0.058102 -0.1161248,0.1161781 -0.17427,0.1741845 -0.053287,0.053161 -0.1064985,0.1063959 -0.1596528,0.1596893 -0.01918,0.019204 -0.038386,0.038382 -0.057623,0.057529 -0.096162,0.095745 -0.1882644,0.1918275 -0.2703926,0.3002714 -0.033767,0.041548 -0.07188,0.07377 -0.1134417,0.107188 -0.029399,0.024026 -0.029399,0.024026 -0.064183,0.068616 -0.042685,0.051014 -0.088355,0.092203 -0.138981,0.1350475 -0.030063,0.025109 -0.030063,0.025109 -0.055692,0.05307 -0.022102,0.020666 -0.022102,0.020666 -0.054069,0.020666 0,0.015824 0,0.031647 0,0.04795 -0.026285,0.028033 -0.026285,0.028033 -0.060937,0.056941 -0.016967,0.014371 -0.016967,0.014371 -0.034277,0.029032 -0.032654,0.025911 -0.032654,0.025911 -0.080604,0.057878 -0.00527,0.015824 -0.010549,0.031647 -0.015983,0.04795 -0.026722,0.026348 -0.026722,0.026348 -0.059938,0.053944 -0.052135,0.043579 -0.099954,0.089645 -0.1478467,0.1378571 -0.7038947,0.7038947 -1.4077893,1.4077893 -2.111684,2.1116843 -0.011241,0.01124 -0.011241,0.01124 -0.022709,0.02271 -0.9667959,0.966796 -1.9335918,1.933592 -2.9003877,2.900388 0,-0.05701 0.015083,-0.06873 0.053655,-0.107887 0.008,-0.0079 0.016007,-0.01575 0.024253,-0.02387 0.00842,-0.0085 0.016845,-0.01696 0.025523,-0.02569 0.028539,-0.02867 0.057248,-0.05716 0.085958,-0.08566 0.020589,-0.02061 0.041167,-0.04123 0.061736,-0.06186 0.056778,-0.05689 0.1137053,-0.113621 0.170657,-0.170332 0.061309,-0.0611 0.1224807,-0.122344 0.1836686,-0.183568 0.1061244,-0.10615 0.2123366,-0.212211 0.3186081,-0.318214 0.1537393,-0.15335 0.3073465,-0.306831 0.4609214,-0.460346 0.2492599,-0.249153 0.4986277,-0.498201 0.7480624,-0.747183 0.2421592,-0.241719 0.4842682,-0.483488 0.7263096,-0.725326 0.022347,-0.02233 0.022347,-0.02233 0.045146,-0.04511 0.074748,-0.07469 0.1494956,-0.149372 0.2242424,-0.224059 0.5154415,-0.515029 1.0309894,-1.0299505 1.5466448,-1.5447648 0.010999,-0.010982 0.021999,-0.021963 0.033332,-0.033277 0.050947,-0.050863 0.1018936,-0.1017257 0.1528419,-0.1525871 0.00905,-0.00903 0.018094,-0.018064 0.027415,-0.027369 0.01652,-0.016492 0.03304,-0.032984 0.049561,-0.049476 0.035972,-0.035912 0.071927,-0.07184 0.107858,-0.1077924 0.022033,-0.022017 0.044137,-0.043964 0.066369,-0.06578 0.040464,-0.039806 0.078846,-0.078562 0.1138195,-0.1233721 0.03544,-0.043192 0.074613,-0.075862 0.1174407,-0.111447 0.028957,-0.024311 0.028957,-0.024311 0.057378,-0.062373 0.029836,-0.037069 0.058813,-0.06427 0.094902,-0.094902 0.052171,-0.044524 0.096474,-0.091197 0.1401048,-0.1439757 0.031626,-0.037625 0.066479,-0.071457 0.1016446,-0.1057654 0.018669,-0.018626 0.037315,-0.037275 0.055942,-0.055942 0.018647,-0.018647 0.037295,-0.037295 0.055942,-0.055942 0.012005,-0.012006 0.02401,-0.024012 0.036379,-0.036382 0.04342,-0.043418 0.086849,-0.086827 0.1302809,-0.1302334 0.017489,-0.017479 0.034978,-0.034958 0.052466,-0.052437 0.00929,-0.00928 0.018571,-0.018561 0.028138,-0.028122 C 8.1098027,7.9761071 8.1615148,7.9244242 8.2132265,7.872741 8.2243455,7.861628 8.2354645,7.850515 8.2469205,7.839066 8.7582868,7.3279816 9.269612,6.8168571 9.7809058,6.3057011 9.8547702,6.2318567 9.928635,6.1580126 10.0025,6.0841686 c 0.0147,-0.0147 0.02941,-0.0294 0.04456,-0.044545 0.238416,-0.2383462 0.476859,-0.4766639 0.715314,-0.7149713 0.244783,-0.2446342 0.489536,-0.4892987 0.734262,-0.7339913 0.150974,-0.1509527 0.301973,-0.3018818 0.453001,-0.4527806 0.103455,-0.1033709 0.206881,-0.2067712 0.310284,-0.3101947 0.05968,-0.059692 0.119377,-0.1193708 0.179106,-0.1790149 0.05467,-0.054595 0.109308,-0.1092259 0.163914,-0.1638867 0.01977,-0.019772 0.03954,-0.03953 0.05934,-0.059274 0.02691,-0.026841 0.05376,-0.053731 0.0806,-0.080634 0.0077,-0.00765 0.01538,-0.015298 0.02331,-0.023178 0.03726,-0.037446 0.07244,-0.075749 0.105883,-0.1165906 0.03747,-0.044841 0.03747,-0.044841 0.08442,-0.083801 0.03794,-0.031745 0.06587,-0.059392 0.0969,-0.096899 0.04315,-0.05216 0.09172,-0.0926 0.143851,-0.1358592 0.01319,-0.015824 0.02637,-0.031647 0.03996,-0.04795 0.04205,-0.050456 0.08453,-0.087284 0.135859,-0.1278674 z"
     fill="#fd943d"
     id="path14"
     style="stroke-width:0.0159834" />
  <path
     d="m 8.1304953,19.127714 c 0.015824,0.0053 0.031647,0.01055 0.04795,0.01598 -0.6856893,0.68569 -1.3713785,1.371379 -2.0778462,2.077847 -0.00527,-0.01582 -0.010549,-0.03165 -0.015983,-0.04795 0.6751402,-0.67514 1.3502803,-1.35028 2.0458793,-2.045879 z"
     fill="#e1a347"
     id="path16"
     style="stroke-width:0.0159834" />
  <path
     d="m 13.516912,13.725314 c 0.01582,0.0053 0.03165,0.01055 0.04795,0.01598 -0.51163,0.511629 -1.023259,1.023259 -1.550393,1.550392 -0.0053,-0.01582 -0.01055,-0.03165 -0.01598,-0.04795 0.501081,-0.50108 1.002161,-1.002161 1.518426,-1.518426 z"
     fill="#e4a346"
     id="path18"
     style="stroke-width:0.0159834" />
  <path
     d="m 3.9268527,23.34734 c 0.015824,0.0079 0.015824,0.0079 0.031967,0.01598 -0.014782,0.01475 -0.029565,0.02949 -0.044795,0.04469 -0.1390485,0.138725 -0.2780552,0.277492 -0.4170205,0.4163 -0.071451,0.07137 -0.1429173,0.14272 -0.2144171,0.214039 -0.068952,0.06878 -0.1378646,0.137596 -0.2067505,0.20644 -0.026338,0.02631 -0.05269,0.0526 -0.079056,0.07888 -0.036819,0.0367 -0.073588,0.07346 -0.1103454,0.11022 -0.016504,0.01642 -0.016504,0.01642 -0.03334,0.03317 -0.00997,0.01 -0.019948,0.01999 -0.030224,0.03029 -0.00871,0.0087 -0.017415,0.01739 -0.026386,0.02634 -0.022193,0.02229 -0.022193,0.02229 -0.036422,0.05437 -0.010549,0 -0.021098,0 -0.031967,0 0,0.01582 0,0.03165 0,0.04795 0.023766,0.0067 0.023766,0.0067 0.048013,0.01355 0.063856,0.01826 0.1273401,0.0376 0.1907398,0.05738 0.016766,0.0052 0.016766,0.0052 0.033871,0.01056 0.075326,0.0237 0.1494143,0.04927 0.2228627,0.07834 -0.1076848,0.03364 -0.2105914,-0.01465 -0.3080557,-0.06062 -0.067822,-0.03002 -0.1375361,-0.05488 -0.2072578,-0.08012 -0.065016,-0.02383 -0.1264856,-0.05081 -0.1879575,-0.08302 0.07062,-0.02825 0.091042,-0.0082 0.1758177,0.01598 0.406139,-0.406139 0.812278,-0.812278 1.2307243,-1.230724 z"
     fill="#f29b3d"
     id="path20"
     style="stroke-width:0.0159834" />
  <path
     d="m 9.4091698,17.84904 c 0.015824,0.0079 0.015824,0.0079 0.031967,0.01598 -0.4208971,0.420897 -0.8417941,0.841794 -1.2626911,1.262691 0.00934,-0.05354 0.025719,-0.07963 0.064022,-0.117738 0.010243,-0.01031 0.020486,-0.02062 0.031039,-0.03124 0.011301,-0.01113 0.022602,-0.02226 0.034246,-0.03372 0.01185,-0.01186 0.023701,-0.02371 0.03591,-0.03593 0.039238,-0.0392 0.078643,-0.07824 0.1180512,-0.117269 0.027222,-0.02713 0.054434,-0.05428 0.081636,-0.08143 0.071656,-0.07147 0.1434548,-0.142801 0.2152839,-0.214099 0.073258,-0.07277 0.14638,-0.145671 0.2195136,-0.218563 0.1435415,-0.143027 0.2872296,-0.285906 0.431022,-0.42868 z"
     fill="#f39c3b"
     id="path22"
     style="stroke-width:0.0159834" />
  <path
     d="m 15.147222,12.095004 c 0.01055,0.0053 0.0211,0.01055 0.03197,0.01598 -0.571576,0.571575 -0.571576,0.571575 -0.607491,0.607488 -0.01924,0.01924 -0.03848,0.03849 -0.05772,0.05774 -0.02773,0.02775 -0.0555,0.05546 -0.08351,0.08293 -0.05798,0.05702 -0.111342,0.115526 -0.162332,0.178878 -0.01055,-0.01055 -0.0211,-0.0211 -0.03197,-0.03197 0.300649,-0.300649 0.601297,-0.601297 0.911056,-0.911056 z"
     fill="#f19c3c"
     id="path24"
     style="stroke-width:0.0159834" />
  <path
     d="m 7.0276385,0.04349674 c -0.060373,0.040249 -0.1154809,0.042374 -0.1858074,0.048949 -0.0123,0.00125 -0.024601,0.00249 -0.037274,0.00378 -0.051137,0.00518 -0.1022868,0.01022 -0.1534503,0.015133 -0.013006,0.00132 -0.026012,0.00264 -0.039412,0.004 -0.011814,0.00116 -0.023627,0.00233 -0.035799,0.00352 -0.028164,0.00182 -0.028164,0.00182 -0.043744,0.020514 -0.034891,0.00375 -0.06988,0.00661 -0.1048913,0.00899 -0.019141,0.00134 -0.038282,0.00268 -0.058002,0.00406 -0.014814,9.684e-4 -0.029628,0.00194 -0.044891,0.00293 0,-0.010549 0,-0.021098 0,-0.031967 0.066257,-0.010374 0.1325243,-0.020677 0.1987939,-0.030968 0.018615,-0.00292 0.037231,-0.00583 0.05641,-0.00883 0.1501842,-0.023268 0.2958751,-0.04253 0.4480668,-0.040115 z"
     fill="#f99046"
     id="path26"
     style="stroke-width:0.0159834" />
  <path
     d="m 13.916498,13.325728 c 0.01582,0.0053 0.03165,0.01055 0.04795,0.01598 -0.0119,0.0099 -0.0119,0.0099 -0.02404,0.01998 -0.06802,0.05783 -0.128087,0.117614 -0.185745,0.185683 -0.0548,0.06233 -0.114555,0.119885 -0.17382,0.17794 -0.01055,-0.01055 -0.0211,-0.0211 -0.03197,-0.03197 0.121314,-0.121314 0.242628,-0.242628 0.367619,-0.367619 z"
     fill="#dca34a"
     id="path28"
     style="stroke-width:0.0159834" />
  <path
     d="m 3.2395651,24.801832 c 0.012815,0.0022 0.025631,0.0043 0.038835,0.0066 0.067583,0.01116 0.1352434,0.02179 0.2029147,0.0324 0.1166546,0.01835 0.2332112,0.03719 0.3496375,0.05694 -0.010549,0.0053 -0.021098,0.01055 -0.031967,0.01598 0,0.01055 0,0.0211 0,0.03197 -0.052745,-0.0053 -0.1054907,-0.01055 -0.1598343,-0.01598 0,-0.01055 0,-0.0211 0,-0.03197 -0.00987,-9.68e-4 -0.019738,-0.0019 -0.029907,-0.0029 -0.028288,-0.0028 -0.056571,-0.0057 -0.08485,-0.0086 -0.029031,-0.0029 -0.058085,-0.0056 -0.08716,-0.008 -0.03404,-0.0031 -0.067935,-0.0077 -0.1017696,-0.01249 -0.00527,-0.01055 -0.010549,-0.0211 -0.015983,-0.03197 -0.040395,-0.01048 -0.040395,-0.01048 -0.079917,-0.01598 0,-0.0053 0,-0.01055 0,-0.01598 z"
     fill="#baa968"
     id="path30"
     style="stroke-width:0.0159834" />
  <path
     d="m 2.7440787,24.641998 c 0.1541148,-0.01491 0.3365621,0.08966 0.479503,0.143851 -0.1100306,0.03437 -0.2166182,-0.01682 -0.3161723,-0.06362 -0.053368,-0.02452 -0.1081517,-0.04418 -0.1633307,-0.06425 0,-0.0053 0,-0.01055 0,-0.01598 z"
     fill="#d5a156"
     id="path32"
     style="stroke-width:0.0159834" />
  <path
     d="m 8.4821308,18.776079 c 0.010549,0.0053 0.021098,0.01055 0.031967,0.01598 -0.059511,0.0729 -0.120619,0.134568 -0.1923006,0.19536 -0.047545,0.04292 -0.086898,0.09072 -0.127368,0.140292 -0.00527,-0.01582 -0.010549,-0.03165 -0.015983,-0.04795 0.1002161,-0.100216 0.2004322,-0.200432 0.3036852,-0.303685 z"
     fill="#ea9e41"
     id="path34"
     style="stroke-width:0.0159834" />
  <path
     d="m 3.9129921,24.915652 c 0.012877,7.72e-4 0.025755,0.0015 0.039022,0.0023 0.013454,8.96e-4 0.026908,0.0018 0.04077,0.0027 0.020367,0.0013 0.020367,0.0013 0.041145,0.0025 0.033574,0.0021 0.067142,0.0043 0.1007081,0.0065 -0.00527,0.01582 -0.010549,0.03165 -0.015983,0.04795 -0.038642,-0.0018 -0.077255,-0.0039 -0.1158799,-0.006 -0.010899,-4.94e-4 -0.021799,-9.89e-4 -0.033028,-0.0015 -0.058675,-0.0034 -0.1046293,-0.0087 -0.154777,-0.04046 0.037666,-0.01883 0.056353,-0.01669 0.098023,-0.01405 z"
     fill="#87bc8c"
     id="path36"
     style="stroke-width:0.0159834" />
  <path
     d="m 14.459934,12.782292 c 0.01055,0.0053 0.0211,0.01055 0.03197,0.01598 -0.0095,0.0093 -0.01891,0.01854 -0.02866,0.0281 -0.06882,0.06803 -0.134885,0.135888 -0.19511,0.211656 -0.01055,-0.01055 -0.0211,-0.0211 -0.03197,-0.03197 0.07384,-0.07384 0.147687,-0.147687 0.223768,-0.223768 z"
     fill="#e99f42"
     id="path38"
     style="stroke-width:0.0159834" />
  <path
     d="m 3.607184,24.865766 c 0.073843,0.01055 0.147687,0.0211 0.2237681,0.03197 -0.015824,0.0079 -0.015824,0.0079 -0.031967,0.01598 0,0.01055 0,0.0211 0,0.03197 -0.052745,-0.0053 -0.1054907,-0.01055 -0.1598344,-0.01598 0,-0.01055 0,-0.0211 0,-0.03197 -0.010549,0 -0.021098,0 -0.031967,0 0,-0.01055 0,-0.0211 2e-7,-0.03197 z"
     fill="#a9b17b"
     id="path40"
     style="stroke-width:0.0159834" />
  <path
     d="m 6.0366657,21.221544 c 0.015824,0.0053 0.031647,0.01055 0.04795,0.01598 -0.047471,0.04747 -0.094942,0.09494 -0.1438509,0.143851 -0.00527,-0.01582 -0.010549,-0.03165 -0.015983,-0.04795 0.036922,-0.03692 0.073843,-0.07384 0.111884,-0.111884 z"
     fill="#e6a344"
     id="path42"
     style="stroke-width:0.0159834" />
  <path
     d="m 2.7440787,24.641998 c 0.081752,-0.01022 0.138617,0.02549 0.2077846,0.06393 -0.040781,0.01487 -0.059779,0.01735 -0.1016446,0.0036 -0.012609,-0.0061 -0.025219,-0.01224 -0.03821,-0.01854 -0.012774,-0.0061 -0.025549,-0.01216 -0.03871,-0.01842 -0.00964,-0.0048 -0.019285,-0.0096 -0.02922,-0.01455 0,-0.0053 0,-0.01055 0,-0.01598 z"
     fill="#e19c4e"
     id="path44"
     style="stroke-width:0.0159834" />
  <path
     d="m 1.2416362,3.5278849 c 0.010549,0.00527 0.021098,0.010549 0.031967,0.015983 -0.015824,0.031647 -0.031647,0.063294 -0.04795,0.095901 -0.015824,0 -0.031647,0 -0.04795,0 -0.015824,0.00791 -0.015824,0.00791 -0.031967,0.015983 0.023057,-0.053799 0.053267,-0.088076 0.095901,-0.1278674 z"
     fill="#f89440"
     id="path46"
     style="stroke-width:0.0159834" />
  <path
     d="m 3.974803,24.913716 c 0.00527,0.01055 0.010549,0.0211 0.015983,0.03197 -0.1022939,0.01967 -0.1022939,0.01967 -0.1508436,9.99e-4 -0.00824,-0.0056 -0.016483,-0.01121 -0.024974,-0.01698 0.051379,-0.02569 0.1028714,-0.0169 0.1598343,-0.01598 z"
     fill="#98b984"
     id="path48"
     style="stroke-width:0.0159834" />
  <path
     d="m 5.8768314,21.381378 c 0.015824,0.0053 0.031647,0.01055 0.04795,0.01598 -0.055383,0.04747 -0.055383,0.04747 -0.111884,0.0959 0.015333,-0.06133 0.019757,-0.07347 0.063934,-0.111884 z"
     fill="#e7a243"
     id="path50"
     style="stroke-width:0.0159834" />
  <path
     d="m 13.516912,13.725314 c 0.01582,0.0053 0.03165,0.01055 0.04795,0.01598 -0.05538,0.04747 -0.05538,0.04747 -0.111884,0.0959 0.01533,-0.06133 0.01976,-0.07347 0.06393,-0.111884 z"
     fill="#d8a44d"
     id="path52"
     style="stroke-width:0.0159834" />
  <path
     d="m 14.108299,13.133927 c 0.01582,0.0053 0.03165,0.01055 0.04795,0.01598 -0.05538,0.04747 -0.05538,0.04747 -0.111884,0.0959 0.01533,-0.06133 0.01976,-0.07347 0.06393,-0.111884 z"
     fill="#d4a34f"
     id="path54"
     style="stroke-width:0.0159834" />
  <path
     d=""
     fill="#e4a760"
     id="path56"
     style="stroke-width:0.0159834" />
</svg>
