<?xml version="1.0" encoding="UTF-8" standalone="no"?>
<!-- Generator: Adobe Illustrator 16.0.0, SVG Export Plug-In . SVG Version: 6.00 Build 0)  -->

<svg
   version="1.1"
   id="Layer_1"
   x="0px"
   y="0px"
   width="32.000565"
   height="32"
   viewBox="0 0 32.000565 32"
   enable-background="new 0 0 115.333 114"
   xml:space="preserve"
   sodipodi:docname="Prometheus_software_logo.svg"
   inkscape:version="1.2.2 (b0a8486541, 2022-12-01)"
   xmlns:inkscape="http://www.inkscape.org/namespaces/inkscape"
   xmlns:sodipodi="http://sodipodi.sourceforge.net/DTD/sodipodi-0.dtd"
   xmlns="http://www.w3.org/2000/svg"
   xmlns:svg="http://www.w3.org/2000/svg"
   xmlns:rdf="http://www.w3.org/1999/02/22-rdf-syntax-ns#"
   xmlns:cc="http://creativecommons.org/ns#"
   xmlns:dc="http://purl.org/dc/elements/1.1/"><metadata
     id="metadata4495"><rdf:RDF><cc:Work
         rdf:about=""><dc:format>image/svg+xml</dc:format><dc:type
           rdf:resource="http://purl.org/dc/dcmitype/StillImage" /></cc:Work></rdf:RDF></metadata><defs
     id="defs4493" /><sodipodi:namedview
     pagecolor="#ffffff"
     bordercolor="#666666"
     borderopacity="1"
     objecttolerance="10"
     gridtolerance="10"
     guidetolerance="10"
     inkscape:pageopacity="0"
     inkscape:pageshadow="2"
     inkscape:window-width="1280"
     inkscape:window-height="862"
     id="namedview4491"
     showgrid="false"
     inkscape:zoom="20.40625"
     inkscape:cx="16"
     inkscape:cy="16"
     inkscape:window-x="0"
     inkscape:window-y="0"
     inkscape:window-maximized="0"
     inkscape:current-layer="Layer_1"
     inkscape:showpageshadow="2"
     inkscape:pagecheckerboard="0"
     inkscape:deskcolor="#d1d1d1" /><g
     id="Layer_2"
     transform="matrix(0.28235875,0,0,0.28235875,0,-0.18833329)" /><path
     style="fill:#e6522c;fill-opacity:1;stroke-width:0.282359"
     inkscape:connector-curvature="0"
     id="path4486"
     d="M 16.000424,0 C 7.1640063,0 0,7.1631592 0,15.999859 0,24.836276 7.1640063,32 16.000424,32 24.836841,32 32.000565,24.836276 32.000565,15.999859 32.000565,7.1631592 24.836558,0 16.000424,0 Z m 0,29.945558 c -2.514123,0 -4.552471,-1.67947 -4.552471,-3.750572 h 9.104941 c 0,2.070819 -2.038348,3.750572 -4.55247,3.750572 z M 23.519637,24.95289 H 8.4803628 V 22.225869 H 23.51992 v 2.727021 z m -0.05393,-4.130626 H 8.5232814 c -0.049695,-0.05732 -0.1005198,-0.113791 -0.1485207,-0.171956 -1.53942,-1.869215 -1.9019686,-2.845047 -2.25407,-3.839515 -0.00593,-0.03275 1.8666737,0.382596 3.194607,0.681332 0,0 0.6833082,0.158121 1.6822933,0.340242 -0.959173,-1.124352 -1.5286902,-2.553652 -1.5286902,-4.014577 0,-3.207313 2.4599092,-6.0100057 1.5724562,-8.27537 0.863735,0.070307 1.787613,1.8229081 1.850014,4.5632 0.918231,-1.2689204 1.302521,-3.5862387 1.302521,-5.007068 0,-1.4710891 0.969338,-3.1799243 1.938958,-3.2383725 -0.8643,1.4244999 0.22391,2.6457015 1.191271,5.6751286 0.362831,1.1379058 0.316525,3.0528629 0.596624,4.2672879 0.0929,-2.5223108 0.5266,-6.2025748 2.126727,-7.4731892 -0.705897,1.600127 0.104472,3.602333 0.658743,4.564894 0.89423,1.5529732 1.436359,2.7295622 1.436359,4.9548312 0,1.491984 -0.550882,2.896719 -1.480125,3.994812 1.056586,-0.198216 1.786201,-0.376949 1.786201,-0.376949 l 3.431224,-0.669473 c 2.82e-4,-2.82e-4 -0.498363,2.050207 -2.414167,4.024742 z" /></svg>
