<?xml version="1.0" encoding="UTF-8" standalone="no"?>
<svg
   width="32"
   height="32"
   viewBox="0 0 32 32"
   fill="none"
   version="1.1"
   id="svg12"
   sodipodi:docname="Microsoft_.NET_logo.svg"
   inkscape:version="1.2.2 (b0a8486541, 2022-12-01)"
   xmlns:inkscape="http://www.inkscape.org/namespaces/inkscape"
   xmlns:sodipodi="http://sodipodi.sourceforge.net/DTD/sodipodi-0.dtd"
   xmlns="http://www.w3.org/2000/svg"
   xmlns:svg="http://www.w3.org/2000/svg">
  <defs
     id="defs16" />
  <sodipodi:namedview
     id="namedview14"
     pagecolor="#ffffff"
     bordercolor="#000000"
     borderopacity="0.25"
     inkscape:showpageshadow="2"
     inkscape:pageopacity="0.0"
     inkscape:pagecheckerboard="0"
     inkscape:deskcolor="#d1d1d1"
     showgrid="false"
     inkscape:zoom="15.96875"
     inkscape:cx="16"
     inkscape:cy="16"
     inkscape:window-width="1444"
     inkscape:window-height="720"
     inkscape:window-x="0"
     inkscape:window-y="0"
     inkscape:window-maximized="0"
     inkscape:current-layer="svg12" />
  <rect
     width="32"
     height="32"
     fill="#512bd4"
     id="rect2"
     x="0"
     y="0"
     style="stroke-width:0.0701754" />
  <path
     d="m 5.7034246,20.444421 c -0.2262597,0 -0.4185825,-0.07537 -0.5769685,-0.226175 -0.1583859,-0.154667 -0.2375789,-0.338316 -0.2375789,-0.550948 0,-0.216561 0.079193,-0.402105 0.2375789,-0.556772 0.158386,-0.154666 0.3507088,-0.232 0.5769685,-0.232 0.230035,0 0.4242456,0.07733 0.5826315,0.232 0.1621544,0.154667 0.2432351,0.340211 0.2432351,0.556772 0,0.212632 -0.081081,0.396281 -0.2432351,0.550948 -0.1583859,0.150807 -0.3525965,0.226175 -0.5826315,0.226175 z"
     fill="#ffffff"
     id="path4"
     style="stroke-width:0.0701754" />
  <path
     d="M 14.748561,20.316842 H 13.277825 L 9.4030877,14.20393 C 9.3050526,14.049263 9.2239298,13.888772 9.1598596,13.722526 h -0.033965 c 0.030176,0.177895 0.045263,0.558737 0.045263,1.142527 v 5.451789 H 7.8701053 V 12 h 1.5668772 l 3.7447015,5.96793 c 0.158386,0.247509 0.260211,0.417614 0.305474,0.510386 h 0.0226 c -0.03768,-0.220351 -0.05656,-0.593474 -0.05656,-1.119369 V 12 h 1.295368 z"
     fill="#ffffff"
     id="path6"
     style="stroke-width:0.0701754" />
  <path
     d="M 21.08414,20.316842 H 16.530596 V 12 h 4.372562 v 1.171579 h -3.026246 v 2.354667 h 2.788702 V 16.692 h -2.788702 v 2.459088 h 3.207228 z"
     fill="#ffffff"
     id="path8"
     style="stroke-width:0.0701754" />
  <path
     d="m 27.555579,13.171579 h -2.330526 v 7.145263 H 23.878737 V 13.171579 H 21.553895 V 12 h 6.001684 z"
     fill="#ffffff"
     id="path10"
     style="stroke-width:0.0701754" />
</svg>
