<?xml version="1.0" encoding="UTF-8" standalone="no"?>
<svg
   version="1.1"
   viewBox="0 0 32.810329 32"
   id="svg46"
   sodipodi:docname="OpenStack®_Logo_2016.svg"
   width="32.810329"
   height="32"
   inkscape:version="1.2.2 (b0a8486541, 2022-12-01)"
   xmlns:inkscape="http://www.inkscape.org/namespaces/inkscape"
   xmlns:sodipodi="http://sodipodi.sourceforge.net/DTD/sodipodi-0.dtd"
   xmlns="http://www.w3.org/2000/svg"
   xmlns:svg="http://www.w3.org/2000/svg"
   xmlns:rdf="http://www.w3.org/1999/02/22-rdf-syntax-ns#"
   xmlns:cc="http://creativecommons.org/ns#"
   xmlns:dc="http://purl.org/dc/elements/1.1/">
  <defs
     id="defs50" />
  <sodipodi:namedview
     id="namedview48"
     pagecolor="#ffffff"
     bordercolor="#000000"
     borderopacity="0.25"
     inkscape:showpageshadow="2"
     inkscape:pageopacity="0.0"
     inkscape:pagecheckerboard="0"
     inkscape:deskcolor="#d1d1d1"
     showgrid="false"
     inkscape:zoom="2.1212766"
     inkscape:cx="66.233701"
     inkscape:cy="113.37513"
     inkscape:window-width="1444"
     inkscape:window-height="720"
     inkscape:window-x="0"
     inkscape:window-y="0"
     inkscape:window-maximized="0"
     inkscape:current-layer="svg46" />
  <metadata
     id="metadata2">
    <rdf:RDF>
      <cc:Work
         rdf:about="">
        <dc:format>image/svg+xml</dc:format>
        <dc:type
           rdf:resource="http://purl.org/dc/dcmitype/StillImage" />
        <dc:title>OpenStack_Logo2016</dc:title>
      </cc:Work>
    </rdf:RDF>
  </metadata>
  <!-- Generator: Sketch 41.1 (35376) - http://www.bohemiancoding.com/sketch -->
  <title
     id="title4">OpenStack_Logo2016</title>
  <desc
     id="desc6">Created with Sketch.</desc>
  <path
     d="M 29.65365,0 H 3.03851 C 1.36733,0 0,1.3673314 0,3.0385142 V 10.18465 H 7.37121 V 9.0142589 c 0,-0.9087409 0.73712,-1.6430485 1.64305,-1.6430485 h 14.65802 c 0.90874,0 1.64304,0.7371211 1.64304,1.6430485 V 10.18465 h 7.37122 V 3.0385142 C 32.68654,1.3673314 31.3192,0 29.64802,0 Z"
     fill="#ed1844"
     id="path34"
     style="fill-rule:evenodd;stroke-width:0.281344" />
  <path
     d="m 25.43349,22.985741 c 0,0.908741 -0.73712,1.643049 -1.64305,1.643049 H 9.13242 c -0.90874,0 -1.64305,-0.737121 -1.64305,-1.643049 V 21.81535 H 0.11816 v 7.146136 C 0.11816,30.632669 1.4855,32 3.15668,32 h 26.61513 c 1.67119,0 3.03852,-1.367331 3.03852,-3.038514 V 21.81535 h -7.37121 z"
     fill="#ed1844"
     id="path36"
     style="fill-rule:evenodd;stroke-width:0.281344" />
  <polygon
     points="0,-1.14e-13 0,226 469,226 469,-1.14e-13 "
     id="polygon38"
     style="fill:none;fill-rule:evenodd"
     transform="translate(-168.6,-2e-4)" />
  <polygon
     points="169,70 195,70 195,43.8 169,43.8 "
     fill="#ed1844"
     id="polygon40"
     style="fill-rule:evenodd"
     transform="matrix(0.28134391,0,0,0.28134391,-47.43458,-5.626878e-5)" />
  <polygon
     points="259,70 285,70 285,43.8 259,43.8 "
     fill="#ed1844"
     id="polygon42"
     style="fill-rule:evenodd"
     transform="matrix(0.28134391,0,0,0.28134391,-47.43458,-5.626878e-5)" />
</svg>
